<svg id="Group_289" data-name="Group 289" xmlns="http://www.w3.org/2000/svg" width="27.343" height="27.59" viewBox="0 0 27.343 27.59">
  <path id="Path_255" data-name="Path 255" d="M526.289,441.105a4.2,4.2,0,0,0-.317.4,5.045,5.045,0,0,0-1.186,4.678,21.409,21.409,0,0,0,19.029,17.211c.2.018.4.027.6.027a5.6,5.6,0,0,0,2.917-.766,4.278,4.278,0,0,0,1.04-.839l.809-.895a4.272,4.272,0,0,0-.3-6.026l-1.365-1.234a4.264,4.264,0,0,0-6.026.3l-.809.894a4.241,4.241,0,0,0-.754,1.172,15.111,15.111,0,0,1-7.507-6.871,4.268,4.268,0,0,0,1.559-1.092l.809-.894a4.268,4.268,0,0,0-.3-6.027l-1.365-1.233a4.267,4.267,0,0,0-6.026.3Zm1.622-.159a3.171,3.171,0,0,1,4.477-.223l1.365,1.233a3.172,3.172,0,0,1,.224,4.478l-.809.893h0a3.166,3.166,0,0,1-1.434.909l-.246.074a.549.549,0,0,0-.333.769l.114.23a16.206,16.206,0,0,0,8.568,7.863l.213.084a.548.548,0,0,0,.721-.336l.072-.215a3.158,3.158,0,0,1,.654-1.115l.809-.894a3.168,3.168,0,0,1,4.477-.224l1.365,1.235a3.174,3.174,0,0,1,.224,4.477l-.809.895a3.22,3.22,0,0,1-.788.632,4.688,4.688,0,0,1-2.861.588,20.307,20.307,0,0,1-18.05-16.326,4.012,4.012,0,0,1,.854-3.666.54.54,0,0,0,.05-.049l.038-.041a.556.556,0,0,0,.044-.056,3.062,3.062,0,0,1,.253-.32Z" transform="translate(-524.664 -435.828)"/>
  <path id="Path_256" data-name="Path 256" d="M582.033,442.068a13.041,13.041,0,0,0-13.025-13.027,1.141,1.141,0,1,0,0,2.282,10.756,10.756,0,0,1,10.744,10.745,1.141,1.141,0,0,0,2.281,0Zm-1.14.592a.593.593,0,0,1-.593-.592,11.305,11.305,0,0,0-11.292-11.293.593.593,0,1,1,0-1.185,12.491,12.491,0,0,1,12.477,12.478A.593.593,0,0,1,580.893,442.66Z" transform="translate(-554.69 -429.041)"/>
  <path id="Path_257" data-name="Path 257" d="M568.551,442.949a1.141,1.141,0,0,0,0,2.282,6.65,6.65,0,0,1,6.642,6.642,1.141,1.141,0,0,0,2.282,0A8.934,8.934,0,0,0,568.551,442.949Zm7.783,9.517a.593.593,0,0,1-.592-.593,7.2,7.2,0,0,0-7.191-7.191.592.592,0,0,1,0-1.184,8.385,8.385,0,0,1,8.376,8.375A.593.593,0,0,1,576.335,452.466Z" transform="translate(-554.373 -438.707)"/>
</svg>
