<svg xmlns="http://www.w3.org/2000/svg" width="29.993" height="29.993" viewBox="0 0 29.993 29.993">
  <g id="Group_383" data-name="Group 383" transform="translate(-673.639 53.622)">
    <path id="Rectangle_950" data-name="Rectangle 950" d="M6.16,0H23.831a6.161,6.161,0,0,1,6.161,6.161v17.67a6.161,6.161,0,0,1-6.161,6.161H6.16A6.16,6.16,0,0,1,0,23.833V6.16A6.16,6.16,0,0,1,6.16,0Z" transform="translate(673.639 -53.622)" fill="#007bb5"/>
    <g id="Group_382" data-name="Group 382">
      <path id="Path_332" data-name="Path 332" d="M678.134-42.267h4.5v14.482h-4.5Zm2.251-7.2a2.611,2.611,0,0,1,2.608,2.611,2.608,2.608,0,0,1-2.608,2.608,2.607,2.607,0,0,1-2.608-2.608,2.609,2.609,0,0,1,2.608-2.611" fill="#fff"/>
      <path id="Path_333" data-name="Path 333" d="M685.458-42.267h4.318v1.982h.062a4.726,4.726,0,0,1,4.258-2.339c4.559,0,5.4,3,5.4,6.9v7.943H695v-7.042c0-1.679-.029-3.841-2.34-3.841-2.342,0-2.7,1.832-2.7,3.72v7.163h-4.5Z" fill="#fff"/>
    </g>
  </g>
</svg>
