<svg xmlns="http://www.w3.org/2000/svg" width="311.032" height="59.776" viewBox="0 0 311.032 59.776">
  <g id="Group_394" data-name="Group 394" transform="translate(-162.968 -2391.224)">
    <text id="For_Scientific_Laboratory_Equipment_Trading_Co._LLC" data-name="For Scientific &amp; Laboratory Equipment Trading Co. LLC" transform="translate(165 2448)" fill="#f4f4f4" font-size="13" font-family="Roboto-Light, Roboto" font-weight="300"><tspan x="0" y="0">For Scientific &amp; Laboratory Equipment Trading Co. LLC</tspan></text>
    <g id="Group_343" data-name="Group 343" transform="translate(225.189 1530.76)">
      <g id="Group_341" data-name="Group 341" transform="translate(-62.221 860.901)">
        <path id="Path_286" data-name="Path 286" d="M105.717,892.629a2,2,0,0,0,2.012-1.883q.017-.36.017-.727a14.374,14.374,0,0,0-4.553-10.7,15.657,15.657,0,0,0-11.283-4.248h-.13A15.657,15.657,0,0,0,80.5,879.318a14.374,14.374,0,0,0-4.553,10.7c0,8.644,6.966,14.9,15.966,14.9a15.716,15.716,0,0,0,11.106-4.121,1.781,1.781,0,0,0-.072-2.622l-3.5-3.059a1.8,1.8,0,0,0-2.343,0,7.031,7.031,0,0,1-4.79,1.668c-2.924,0-5.3-1.352-6.179-4.1h0v-.01l-.015-.041H96.981l.6-.017-.006.017ZM87.56,886.867H86.267a6.088,6.088,0,0,1,11.158,0Z" transform="translate(15.744 -865.814)" fill="#fff"/>
        <path id="Path_287" data-name="Path 287" d="M61.061,876.143c-9.374,0-16.173,6.08-16.364,14.923h.009c0,.137-.009.273-.009.412v11.989a1.811,1.811,0,0,0,1.812,1.811h7.1a1.812,1.812,0,0,0,1.812-1.811v-12.4c.011-3.6,2.345-6.076,5.592-6.076a5.782,5.782,0,0,1,1.262.136,1.812,1.812,0,0,0,2.057-1.147,18.906,18.906,0,0,1,2.432-4.464,1.8,1.8,0,0,0-1-2.807A19.189,19.189,0,0,0,61.061,876.143Z" transform="translate(26.255 -866.175)" fill="#fff"/>
        <path id="Path_288" data-name="Path 288" d="M8.183,875.07c-9.508,0-16.373,6.254-16.373,15.3,0,8.847,6.407,14.543,14.593,14.543a10.5,10.5,0,0,0,8.614-3.777V903.2a1.01,1.01,0,0,0,1.011,1.01h7.229a1.2,1.2,0,0,0,1.2-1.2V890.528C24.454,881.426,17.641,875.07,8.183,875.07Zm0,21c-3.305,0-5.644-2.44-5.644-6.051s2.339-6.1,5.593-6.1,5.594,2.542,5.594,6.2C13.725,893.68,11.436,896.07,8.183,896.07Z" transform="translate(44.046 -865.814)" fill="#fff"/>
        <path id="Path_289" data-name="Path 289" d="M-31.579,889.65a1.761,1.761,0,0,0-2.173-.135h0a10.71,10.71,0,0,1-6.59,2.179c-6.162,0-10.465-4.546-10.465-11.055s4.273-11.056,10.391-11.056a10.927,10.927,0,0,1,6.645,2.2h0a1.782,1.782,0,0,0,2.159-.073l3.76-3.361h0l.237-.212a1.785,1.785,0,0,0,.028-2.628c-.058-.055-.119-.1-.179-.156a20.7,20.7,0,0,0-12.946-4.228c-12.462,0-21.508,8.239-21.508,19.589,0,11.307,9.077,19.515,21.583,19.515a20.662,20.662,0,0,0,12.443-3.962c.2-.173.405-.35.6-.538a1.774,1.774,0,0,0-.034-2.574Z" transform="translate(62.221 -861.122)" fill="#fff"/>
      </g>
      <g id="Group_342" data-name="Group 342" transform="translate(63.51 860.464)">
        <path id="Path_290" data-name="Path 290" d="M388.321,892.629a2,2,0,0,0,2.012-1.883q.018-.36.018-.727a14.372,14.372,0,0,0-4.554-10.7,15.655,15.655,0,0,0-11.282-4.248h-.131a15.655,15.655,0,0,0-11.282,4.248,14.372,14.372,0,0,0-4.554,10.7c0,8.644,6.966,14.9,15.967,14.9a15.714,15.714,0,0,0,11.106-4.121,1.781,1.781,0,0,0-.071-2.622l-3.5-3.059a1.8,1.8,0,0,0-2.343,0,7.03,7.03,0,0,1-4.79,1.668c-2.924,0-5.3-1.352-6.179-4.1h0v-.01c0-.014-.009-.027-.014-.041h10.861l.6-.017-.006.017Zm-18.158-5.762h-1.293a6.088,6.088,0,0,1,11.158,0Z" transform="translate(-205.05 -865.377)" fill="#fff"/>
        <path id="Path_291" data-name="Path 291" d="M316.655,890.019c0-8.745,6.966-14.949,16.271-14.949a15.421,15.421,0,0,1,10.79,4.061,1.786,1.786,0,0,1-.028,2.629l-4.063,3.631a1.762,1.762,0,0,1-2.347.016,6.046,6.046,0,0,0-4.148-1.591c-3.1,0-5.7,2.186-5.7,6.152,0,3.915,2.593,6.152,5.746,6.152a5.973,5.973,0,0,0,4.1-1.568,1.76,1.76,0,0,1,2.331.022l4.065,3.6a1.777,1.777,0,0,1,.063,2.607,15.364,15.364,0,0,1-10.763,4.133C323.621,904.918,316.655,898.663,316.655,890.019Z" transform="translate(-190.958 -865.377)" fill="#fff"/>
        <path id="Path_292" data-name="Path 292" d="M144.078,900a40.436,40.436,0,0,1-15.718-3.092,1.814,1.814,0,0,1-.976-2.375l2.268-5.4a1.8,1.8,0,0,1,1.668-1.1,1.859,1.859,0,0,1,.663.123,35.96,35.96,0,0,0,13.064,2.429c1.165,0,4.713,0,4.713-2.774,0-2.059-2.062-2.707-6.994-3.461C131.849,882.808,127.6,879.623,127.6,873c0-7.73,6.527-12.533,17.034-12.533a41.891,41.891,0,0,1,14.459,2.839,1.82,1.82,0,0,1,1.017,1.017,1.788,1.788,0,0,1-.031,1.412l-2.409,5.329a1.809,1.809,0,0,1-1.65,1.059,1.864,1.864,0,0,1-.6-.1,36.46,36.46,0,0,0-11.48-2.143c-3.376,0-3.881,1.564-3.881,2.5,0,1.611,1.368,2.28,6.364,3.114,11.174,1.713,15.729,5.146,15.729,11.846C162.151,895.149,155.226,900,144.078,900Z" transform="translate(-127.243 -860.464)" fill="#fff"/>
        <path id="Path_293" data-name="Path 293" d="M257.642,876.143h7.15a1.738,1.738,0,0,1,1.738,1.738v11.991c0,9.61-6.254,15.406-15.051,15.406-8.949,0-15.1-5.8-15.1-15.406V877.881a1.738,1.738,0,0,1,1.738-1.738h7.1a1.738,1.738,0,0,1,1.738,1.738v13.567c0,2.949,1.83,4.982,4.525,4.982,2.543,0,4.424-2.033,4.424-4.982V877.881A1.738,1.738,0,0,1,257.642,876.143Z" transform="translate(-163.954 -865.738)" fill="#fff"/>
        <path id="Path_294" data-name="Path 294" d="M301.93,876.143c-9.373,0-16.172,6.08-16.363,14.923h.009c0,.137-.009.273-.009.412v11.989a1.811,1.811,0,0,0,1.812,1.811h7.1a1.811,1.811,0,0,0,1.811-1.811v-12.4c.011-3.6,2.346-6.076,5.592-6.076a5.782,5.782,0,0,1,1.262.136,1.811,1.811,0,0,0,2.056-1.147,18.883,18.883,0,0,1,2.433-4.464,1.8,1.8,0,0,0-1-2.807A19.189,19.189,0,0,0,301.93,876.143Z" transform="translate(-180.5 -865.738)" fill="#fff"/>
        <path id="Path_295" data-name="Path 295" d="M183.49,889.968c0-8.593,6.864-14.9,16.373-14.9,9.407,0,16.271,6.254,16.271,14.847s-6.864,15-16.322,15C190.3,904.918,183.49,898.561,183.49,889.968Zm21.915,0c0-3.61-2.339-6.051-5.593-6.051s-5.594,2.39-5.594,5.949c0,3.661,2.39,6.2,5.644,6.2C203.067,896.07,205.405,893.578,205.405,889.968Z" transform="translate(-146.163 -865.377)" fill="#fff"/>
      </g>
    </g>
  </g>
</svg>
