<svg xmlns="http://www.w3.org/2000/svg" width="144.853" height="28.009" viewBox="0 0 144.853 28.009">
  <g id="Group_417" data-name="Group 417" transform="translate(-609.939 -154.728)">
    <g id="For_Scientific_Laboratory_Equipment_Trading_Co._LLC" data-name="For Scientific Laboratory Equipment Trading Co. LLC" transform="translate(610.521 176.786)">
      <g id="Group_416" data-name="Group 416" style="isolation: isolate">
        <path id="Path_339" data-name="Path 339" d="M613.323,193.4h-2.088v2.015h-.351v-4.294h2.74v.3h-2.389v1.678h2.088Z" transform="translate(-610.884 -190.747)" fill="#002672"/>
        <path id="Path_340" data-name="Path 340" d="M615.956,194.417a1.714,1.714,0,0,1,.386-1.156,1.39,1.39,0,0,1,2.05,0,1.717,1.717,0,0,1,.386,1.156v.1a1.719,1.719,0,0,1-.385,1.158,1.394,1.394,0,0,1-2.051,0,1.714,1.714,0,0,1-.386-1.158Zm.354.1a1.519,1.519,0,0,0,.28.931.992.992,0,0,0,1.556,0,1.516,1.516,0,0,0,.282-.931v-.1a1.506,1.506,0,0,0-.283-.925.985.985,0,0,0-1.554,0,1.517,1.517,0,0,0-.28.925Z" transform="translate(-612.83 -191.397)" fill="#002672"/>
        <path id="Path_341" data-name="Path 341" d="M623.2,193.172l-.263-.017a.8.8,0,0,0-.547.187,1.026,1.026,0,0,0-.306.515v2.2h-.354v-3.191h.31l.044.531v.035a1.148,1.148,0,0,1,.372-.46.933.933,0,0,1,.555-.165.82.82,0,0,1,.131.01c.043.007.077.015.1.022Z" transform="translate(-615.046 -191.397)" fill="#002672"/>
        <path id="Path_342" data-name="Path 342" d="M629.9,194.317a.716.716,0,0,0-.263-.573,2.406,2.406,0,0,0-.914-.393,2.9,2.9,0,0,1-1.068-.46.921.921,0,0,1-.362-.764.963.963,0,0,1,.406-.8,1.67,1.67,0,0,1,1.043-.309,1.532,1.532,0,0,1,1.07.368,1.134,1.134,0,0,1,.4.9l-.009.018h-.324a.915.915,0,0,0-.305-.708,1.184,1.184,0,0,0-.827-.277,1.267,1.267,0,0,0-.807.23.7.7,0,0,0-.29.572.667.667,0,0,0,.268.541,2.506,2.506,0,0,0,.926.382,2.683,2.683,0,0,1,1.055.478.98.98,0,0,1,.361.793.956.956,0,0,1-.42.817,1.777,1.777,0,0,1-1.072.3,1.954,1.954,0,0,1-1.122-.324,1.029,1.029,0,0,1-.465-.942l.006-.018h.324a.821.821,0,0,0,.374.741,1.6,1.6,0,0,0,.882.24,1.392,1.392,0,0,0,.825-.224A.693.693,0,0,0,629.9,194.317Z" transform="translate(-617.134 -190.709)" fill="#002672"/>
        <path id="Path_343" data-name="Path 343" d="M634.412,195.821a1.009,1.009,0,0,0,.619-.2.653.653,0,0,0,.268-.555h.312l.006.017a.877.877,0,0,1-.354.74,1.319,1.319,0,0,1-.852.3,1.215,1.215,0,0,1-1.007-.447,1.787,1.787,0,0,1-.356-1.149V194.4a1.781,1.781,0,0,1,.357-1.144,1.209,1.209,0,0,1,1-.448,1.272,1.272,0,0,1,.875.31,1,1,0,0,1,.338.814l-.006.017H635.3a.774.774,0,0,0-.258-.611.92.92,0,0,0-.632-.229.852.852,0,0,0-.76.367,1.625,1.625,0,0,0-.246.924v.123a1.639,1.639,0,0,0,.245.931A.853.853,0,0,0,634.412,195.821Z" transform="translate(-619.388 -191.397)" fill="#002672"/>
        <path id="Path_344" data-name="Path 344" d="M638.841,191.113h-.352v-.5h.352Zm0,4.105h-.352v-3.191h.352Z" transform="translate(-621.476 -190.556)" fill="#002672"/>
        <path id="Path_345" data-name="Path 345" d="M641.719,196.122a1.28,1.28,0,0,1-1-.443,1.617,1.617,0,0,1-.4-1.121V194.4a1.665,1.665,0,0,1,.394-1.135,1.222,1.222,0,0,1,.954-.451,1.183,1.183,0,0,1,.923.372,1.422,1.422,0,0,1,.336.991v.3h-2.254v.085a1.409,1.409,0,0,0,.286.9.913.913,0,0,0,.753.362,1.544,1.544,0,0,0,.563-.091,1.1,1.1,0,0,0,.4-.263l.15.242a1.273,1.273,0,0,1-.456.3A1.738,1.738,0,0,1,641.719,196.122Zm-.044-3.011a.845.845,0,0,0-.658.3,1.284,1.284,0,0,0-.31.749l.006.015h1.87v-.089a1.019,1.019,0,0,0-.245-.694A.838.838,0,0,0,641.675,193.111Z" transform="translate(-622.181 -191.397)" fill="#002672"/>
        <path id="Path_346" data-name="Path 346" d="M646,192.869l.033.558a1.1,1.1,0,0,1,1.032-.616.982.982,0,0,1,.79.317,1.5,1.5,0,0,1,.271.99v1.943h-.354v-1.944a1.159,1.159,0,0,0-.2-.777.743.743,0,0,0-.582-.227.912.912,0,0,0-.606.2,1.09,1.09,0,0,0-.337.521v2.231h-.354v-3.191Z" transform="translate(-624.239 -191.397)" fill="#002672"/>
        <path id="Path_347" data-name="Path 347" d="M651.48,191.58v.817h.7v.289h-.7v2.079a.68.68,0,0,0,.113.444.382.382,0,0,0,.3.131q.085,0,.166-.007c.054,0,.116-.014.187-.025l.053.263a.923.923,0,0,1-.215.059,1.6,1.6,0,0,1-.254.021.664.664,0,0,1-.523-.213,1,1,0,0,1-.187-.672v-2.079h-.552V192.4h.552v-.817Z" transform="translate(-626.112 -190.925)" fill="#002672"/>
        <path id="Path_348" data-name="Path 348" d="M654.823,191.113h-.351v-.5h.351Zm0,4.105h-.351v-3.191h.351Z" transform="translate(-627.608 -190.556)" fill="#002672"/>
        <path id="Path_349" data-name="Path 349" d="M656.63,195.18v-2.9H656.1v-.289h.531v-.407a.971.971,0,0,1,1.059-1.064,1.876,1.876,0,0,1,.4.044,2.48,2.48,0,0,1,.413.129l-.059.3a2.462,2.462,0,0,0-.348-.115,1.639,1.639,0,0,0-.383-.041.719.719,0,0,0-.544.192.763.763,0,0,0-.185.551v.407h.746v.289h-.746v2.9Zm2.065,0h-.354v-3.191h.354Z" transform="translate(-628.233 -190.518)" fill="#002672"/>
        <path id="Path_350" data-name="Path 350" d="M662.96,195.821a1.01,1.01,0,0,0,.619-.2.652.652,0,0,0,.268-.555h.313l.006.017a.873.873,0,0,1-.354.74,1.316,1.316,0,0,1-.852.3,1.215,1.215,0,0,1-1.007-.447,1.787,1.787,0,0,1-.355-1.149V194.4a1.781,1.781,0,0,1,.356-1.144,1.209,1.209,0,0,1,1-.448,1.27,1.27,0,0,1,.875.31,1,1,0,0,1,.338.814l-.006.017h-.316a.776.776,0,0,0-.258-.611.919.919,0,0,0-.632-.229.85.85,0,0,0-.759.367,1.624,1.624,0,0,0-.246.924v.123a1.643,1.643,0,0,0,.244.931A.855.855,0,0,0,662.96,195.821Z" transform="translate(-630.342 -191.397)" fill="#002672"/>
        <path id="Path_351" data-name="Path 351" d="M669.9,193.026a2.742,2.742,0,0,1-.354-.538,1.157,1.157,0,0,1-.115-.5.957.957,0,0,1,.263-.72.991.991,0,0,1,.72-.253.936.936,0,0,1,.674.239.8.8,0,0,1,.249.6.783.783,0,0,1-.133.457,1.756,1.756,0,0,1-.383.383l-.468.36,1.215,1.418a1.687,1.687,0,0,0,.224-.469,1.859,1.859,0,0,0,.079-.554h.325a2.156,2.156,0,0,1-.108.695,1.885,1.885,0,0,1-.311.573l.545.638-.006.014h-.4l-.36-.416a1.849,1.849,0,0,1-.549.354,1.658,1.658,0,0,1-.643.125,1.429,1.429,0,0,1-.976-.316,1.064,1.064,0,0,1-.36-.841,1.045,1.045,0,0,1,.214-.639,2.92,2.92,0,0,1,.618-.579Zm.46,2.106a1.378,1.378,0,0,0,.529-.105,1.492,1.492,0,0,0,.465-.3l-1.221-1.421-.025-.025a.069.069,0,0,1-.016-.022l-.139.106a1.746,1.746,0,0,0-.459.5.9.9,0,0,0-.116.412.82.82,0,0,0,.252.611A1,1,0,0,0,670.364,195.132Zm-.575-3.149a.986.986,0,0,0,.093.4,2.014,2.014,0,0,0,.285.446l.522-.39a.836.836,0,0,0,.243-.277.684.684,0,0,0,.072-.31.522.522,0,0,0-.155-.386.587.587,0,0,0-.432-.153.579.579,0,0,0-.465.192A.708.708,0,0,0,669.789,191.983Z" transform="translate(-633.193 -190.709)" fill="#002672"/>
        <path id="Path_352" data-name="Path 352" d="M678.273,195.109H680.4v.3h-2.477v-4.294h.354Z" transform="translate(-636.605 -190.747)" fill="#002672"/>
        <path id="Path_353" data-name="Path 353" d="M684.843,196.06c-.023-.108-.04-.2-.05-.28a1.8,1.8,0,0,1-.015-.239,1.408,1.408,0,0,1-.472.415,1.332,1.332,0,0,1-.663.166,1,1,0,0,1-.724-.248.877.877,0,0,1-.258-.663.822.822,0,0,1,.381-.708,1.78,1.78,0,0,1,1.031-.266h.705v-.4a.68.68,0,0,0-.22-.537.9.9,0,0,0-.615-.194.974.974,0,0,0-.611.186.553.553,0,0,0-.244.454l-.324,0-.006-.017a.764.764,0,0,1,.326-.638,1.333,1.333,0,0,1,.875-.282,1.283,1.283,0,0,1,.849.268.947.947,0,0,1,.321.77v1.569a2.838,2.838,0,0,0,.019.327,2.071,2.071,0,0,0,.063.316Zm-1.159-.25a1.261,1.261,0,0,0,.672-.179,1.061,1.061,0,0,0,.422-.456v-.666h-.711a1.3,1.3,0,0,0-.768.2.609.609,0,0,0-.288.509.549.549,0,0,0,.179.423A.7.7,0,0,0,683.684,195.81Z" transform="translate(-638.424 -191.397)" fill="#002672"/>
        <path id="Path_354" data-name="Path 354" d="M690.762,193.712a1.84,1.84,0,0,1-.324,1.143,1.061,1.061,0,0,1-.893.426,1.239,1.239,0,0,1-.605-.141,1.078,1.078,0,0,1-.41-.4l-.038.481h-.3v-4.6h.354v1.911a1.091,1.091,0,0,1,1-.56,1.041,1.041,0,0,1,.9.459,2.075,2.075,0,0,1,.324,1.222Zm-.357-.062a1.876,1.876,0,0,0-.236-1,.768.768,0,0,0-.7-.383.91.91,0,0,0-.594.184,1.091,1.091,0,0,0-.335.471v1.448a.952.952,0,0,0,.934.607.784.784,0,0,0,.7-.343,1.621,1.621,0,0,0,.233-.924Z" transform="translate(-640.545 -190.556)" fill="#002672"/>
        <path id="Path_355" data-name="Path 355" d="M693.327,194.417a1.714,1.714,0,0,1,.386-1.156,1.39,1.39,0,0,1,2.05,0,1.717,1.717,0,0,1,.386,1.156v.1a1.719,1.719,0,0,1-.385,1.158,1.394,1.394,0,0,1-2.051,0,1.714,1.714,0,0,1-.386-1.158Zm.354.1a1.519,1.519,0,0,0,.28.931.991.991,0,0,0,1.556,0,1.512,1.512,0,0,0,.282-.931v-.1a1.5,1.5,0,0,0-.283-.925.985.985,0,0,0-1.554,0,1.517,1.517,0,0,0-.28.925Z" transform="translate(-642.517 -191.397)" fill="#002672"/>
        <path id="Path_356" data-name="Path 356" d="M700.572,193.172l-.262-.017a.8.8,0,0,0-.547.187,1.026,1.026,0,0,0-.306.515v2.2H699.1v-3.191h.309l.044.531v.035a1.148,1.148,0,0,1,.372-.46.933.933,0,0,1,.555-.165.834.834,0,0,1,.131.01c.042.007.077.015.1.022Z" transform="translate(-644.733 -191.397)" fill="#002672"/>
        <path id="Path_357" data-name="Path 357" d="M704.357,196.06c-.023-.108-.041-.2-.05-.28a1.913,1.913,0,0,1-.015-.239,1.407,1.407,0,0,1-.471.415,1.337,1.337,0,0,1-.664.166,1,1,0,0,1-.724-.248.874.874,0,0,1-.258-.663.822.822,0,0,1,.382-.708,1.779,1.779,0,0,1,1.031-.266h.7v-.4a.682.682,0,0,0-.219-.537.9.9,0,0,0-.615-.194.975.975,0,0,0-.612.186.554.554,0,0,0-.243.454l-.324,0-.006-.017a.763.763,0,0,1,.326-.638,1.331,1.331,0,0,1,.874-.282,1.282,1.282,0,0,1,.85.268.946.946,0,0,1,.322.77v1.569a2.589,2.589,0,0,0,.019.327,2.069,2.069,0,0,0,.063.316Zm-1.159-.25a1.265,1.265,0,0,0,.672-.179,1.063,1.063,0,0,0,.422-.456v-.666h-.711a1.3,1.3,0,0,0-.769.2.608.608,0,0,0-.287.509.549.549,0,0,0,.178.423A.7.7,0,0,0,703.2,195.81Z" transform="translate(-645.911 -191.397)" fill="#002672"/>
        <path id="Path_358" data-name="Path 358" d="M708.04,191.58v.817h.7v.289h-.7v2.079a.683.683,0,0,0,.113.444.38.38,0,0,0,.3.131c.057,0,.113,0,.166-.007s.116-.014.187-.025l.053.263a.912.912,0,0,1-.215.059,1.6,1.6,0,0,1-.253.021.662.662,0,0,1-.524-.213,1,1,0,0,1-.187-.672v-2.079h-.552V192.4h.552v-.817Z" transform="translate(-647.813 -190.925)" fill="#002672"/>
        <path id="Path_359" data-name="Path 359" d="M710.544,194.417a1.714,1.714,0,0,1,.386-1.156,1.39,1.39,0,0,1,2.05,0,1.717,1.717,0,0,1,.386,1.156v.1a1.719,1.719,0,0,1-.385,1.158,1.394,1.394,0,0,1-2.051,0,1.714,1.714,0,0,1-.386-1.158Zm.354.1a1.519,1.519,0,0,0,.28.931.992.992,0,0,0,1.556,0,1.516,1.516,0,0,0,.282-.931v-.1a1.506,1.506,0,0,0-.283-.925.985.985,0,0,0-1.554,0,1.517,1.517,0,0,0-.28.925Z" transform="translate(-649.122 -191.397)" fill="#002672"/>
        <path id="Path_360" data-name="Path 360" d="M717.788,193.172l-.263-.017a.8.8,0,0,0-.547.187,1.027,1.027,0,0,0-.306.515v2.2h-.354v-3.191h.31l.044.531v.035a1.147,1.147,0,0,1,.372-.46.932.932,0,0,1,.554-.165.823.823,0,0,1,.131.01c.042.007.077.015.1.022Z" transform="translate(-651.338 -191.397)" fill="#002672"/>
        <path id="Path_361" data-name="Path 361" d="M720.42,195.232l.112.38h.018l.964-2.707h.4l-1.386,3.7a1.833,1.833,0,0,1-.322.552.723.723,0,0,1-.578.227,1,1,0,0,1-.15-.014.666.666,0,0,1-.129-.028l.041-.295c.024,0,.062.009.114.013s.089.007.113.007a.459.459,0,0,0,.369-.164,1.432,1.432,0,0,0,.236-.42l.168-.431-1.233-3.15h.393Z" transform="translate(-652.425 -191.434)" fill="#002672"/>
        <path id="Path_362" data-name="Path 362" d="M729.5,193.331h-2.068v1.778H729.8v.3h-2.719v-4.294h2.7v.3h-2.354v1.613H729.5Z" transform="translate(-655.466 -190.747)" fill="#002672"/>
        <path id="Path_363" data-name="Path 363" d="M732.25,194.491a2.089,2.089,0,0,1,.322-1.222,1.041,1.041,0,0,1,.9-.459,1.162,1.162,0,0,1,.574.137,1.117,1.117,0,0,1,.406.391l.036-.469h.306v4.418h-.351v-1.646a1.083,1.083,0,0,1-.407.357,1.241,1.241,0,0,1-.569.124,1.062,1.062,0,0,1-.9-.426,1.852,1.852,0,0,1-.322-1.143Zm.354.06a1.64,1.64,0,0,0,.231.924.784.784,0,0,0,.7.346.988.988,0,0,0,.556-.149,1.032,1.032,0,0,0,.356-.4v-1.561a1.1,1.1,0,0,0-.344-.429.91.91,0,0,0-.561-.166.769.769,0,0,0-.7.385,1.89,1.89,0,0,0-.234.994Z" transform="translate(-657.451 -191.397)" fill="#002672"/>
        <path id="Path_364" data-name="Path 364" d="M740.013,195.574a1.108,1.108,0,0,1-.413.433,1.192,1.192,0,0,1-.613.152.974.974,0,0,1-.79-.343,1.63,1.63,0,0,1-.287-1.062V192.9h.354v1.859a1.377,1.377,0,0,0,.2.839.674.674,0,0,0,.565.254,1.039,1.039,0,0,0,.64-.18.939.939,0,0,0,.333-.5V192.9h.354V196.1h-.312Z" transform="translate(-659.623 -191.434)" fill="#002672"/>
        <path id="Path_365" data-name="Path 365" d="M743.807,191.113h-.351v-.5h.351Zm0,4.105h-.351v-3.191h.351Z" transform="translate(-661.75 -190.556)" fill="#002672"/>
        <path id="Path_366" data-name="Path 366" d="M748.176,194.553a1.836,1.836,0,0,1-.324,1.143,1.061,1.061,0,0,1-.893.426,1.294,1.294,0,0,1-.589-.127,1.063,1.063,0,0,1-.411-.362v1.654H745.6v-4.418h.3l.044.5a1.133,1.133,0,0,1,.411-.41,1.18,1.18,0,0,1,.595-.144,1.041,1.041,0,0,1,.9.459,2.071,2.071,0,0,1,.324,1.222Zm-.354-.067a1.842,1.842,0,0,0-.241-.992.786.786,0,0,0-.708-.384.929.929,0,0,0-.579.169,1.041,1.041,0,0,0-.335.441v1.535a.965.965,0,0,0,.349.414,1.015,1.015,0,0,0,.571.15.8.8,0,0,0,.7-.348,1.6,1.6,0,0,0,.24-.924Z" transform="translate(-662.575 -191.397)" fill="#002672"/>
        <path id="Path_367" data-name="Path 367" d="M751.352,192.869l.033.528a1.118,1.118,0,0,1,.409-.433,1.157,1.157,0,0,1,.609-.153,1.016,1.016,0,0,1,.611.177.97.97,0,0,1,.352.54,1.221,1.221,0,0,1,.412-.527,1.093,1.093,0,0,1,.65-.19.957.957,0,0,1,.787.339,1.642,1.642,0,0,1,.278,1.05v1.861h-.354v-1.87a1.293,1.293,0,0,0-.208-.835.72.72,0,0,0-.579-.243.8.8,0,0,0-.634.257,1.215,1.215,0,0,0-.277.659c0,.014,0,.034,0,.059s0,.044,0,.057v1.917h-.356v-1.87a1.289,1.289,0,0,0-.211-.829.718.718,0,0,0-.58-.25.877.877,0,0,0-.594.19,1.02,1.02,0,0,0-.308.513v2.246h-.357v-3.191Z" transform="translate(-664.659 -191.397)" fill="#002672"/>
        <path id="Path_368" data-name="Path 368" d="M760.826,196.122a1.281,1.281,0,0,1-.995-.443,1.614,1.614,0,0,1-.4-1.121V194.4a1.665,1.665,0,0,1,.393-1.135,1.222,1.222,0,0,1,.954-.451,1.182,1.182,0,0,1,.923.372,1.422,1.422,0,0,1,.336.991v.3h-2.253v.085a1.405,1.405,0,0,0,.286.9.91.91,0,0,0,.751.362,1.541,1.541,0,0,0,.563-.091,1.107,1.107,0,0,0,.4-.263l.15.242a1.276,1.276,0,0,1-.456.3A1.746,1.746,0,0,1,760.826,196.122Zm-.044-3.011a.844.844,0,0,0-.658.3,1.284,1.284,0,0,0-.309.749l.006.015h1.87v-.089a1.016,1.016,0,0,0-.245-.694A.836.836,0,0,0,760.782,193.111Z" transform="translate(-667.882 -191.397)" fill="#002672"/>
        <path id="Path_369" data-name="Path 369" d="M765.111,192.869l.032.558a1.14,1.14,0,0,1,.414-.456,1.154,1.154,0,0,1,.618-.16.982.982,0,0,1,.79.317,1.5,1.5,0,0,1,.272.99v1.943h-.354v-1.944a1.162,1.162,0,0,0-.205-.777.744.744,0,0,0-.583-.227.911.911,0,0,0-.606.2,1.094,1.094,0,0,0-.338.521v2.231H764.8v-3.191Z" transform="translate(-669.939 -191.397)" fill="#002672"/>
        <path id="Path_370" data-name="Path 370" d="M770.587,191.58v.817h.7v.289h-.7v2.079a.683.683,0,0,0,.113.444.38.38,0,0,0,.3.131c.057,0,.113,0,.166-.007s.116-.014.187-.025l.053.263a.92.92,0,0,1-.215.059,1.6,1.6,0,0,1-.253.021.662.662,0,0,1-.524-.213,1,1,0,0,1-.187-.672v-2.079h-.552V192.4h.552v-.817Z" transform="translate(-671.812 -190.925)" fill="#002672"/>
        <path id="Path_371" data-name="Path 371" d="M778.659,191.417h-1.478v3.993h-.354v-3.993H775.35v-.3h3.309Z" transform="translate(-673.988 -190.747)" fill="#002672"/>
        <path id="Path_372" data-name="Path 372" d="M782.8,193.172l-.263-.017a.8.8,0,0,0-.547.187,1.03,1.03,0,0,0-.305.515v2.2h-.354v-3.191h.309l.044.531v.035a1.148,1.148,0,0,1,.372-.46.931.931,0,0,1,.555-.165.833.833,0,0,1,.131.01c.042.007.077.015.1.022Z" transform="translate(-676.285 -191.397)" fill="#002672"/>
        <path id="Path_373" data-name="Path 373" d="M786.59,196.06c-.023-.108-.04-.2-.05-.28a1.9,1.9,0,0,1-.015-.239,1.409,1.409,0,0,1-.472.415,1.332,1.332,0,0,1-.663.166,1,1,0,0,1-.724-.248.876.876,0,0,1-.258-.663.822.822,0,0,1,.381-.708,1.78,1.78,0,0,1,1.031-.266h.705v-.4a.68.68,0,0,0-.22-.537.9.9,0,0,0-.615-.194.975.975,0,0,0-.611.186.552.552,0,0,0-.243.454l-.325,0-.005-.017a.764.764,0,0,1,.326-.638,1.333,1.333,0,0,1,.875-.282,1.283,1.283,0,0,1,.849.268.947.947,0,0,1,.321.77v1.569a2.838,2.838,0,0,0,.019.327,2.078,2.078,0,0,0,.063.316Zm-1.159-.25a1.262,1.262,0,0,0,.672-.179,1.061,1.061,0,0,0,.422-.456v-.666h-.711a1.3,1.3,0,0,0-.768.2.608.608,0,0,0-.287.509.549.549,0,0,0,.178.423A.7.7,0,0,0,785.431,195.81Z" transform="translate(-677.463 -191.397)" fill="#002672"/>
        <path id="Path_374" data-name="Path 374" d="M789.715,193.65a2.089,2.089,0,0,1,.322-1.222,1.041,1.041,0,0,1,.9-.459,1.145,1.145,0,0,1,.579.141,1.171,1.171,0,0,1,.407.4v-1.893h.351v4.6h-.313l-.029-.463a1.1,1.1,0,0,1-.411.39,1.222,1.222,0,0,1-.59.136,1.061,1.061,0,0,1-.895-.426,1.852,1.852,0,0,1-.322-1.143Zm.354.063a1.631,1.631,0,0,0,.231.924.785.785,0,0,0,.7.343,1,1,0,0,0,.571-.154,1.021,1.021,0,0,0,.356-.426v-1.5a1.144,1.144,0,0,0-.343-.452.911.911,0,0,0-.577-.173.769.769,0,0,0-.7.383,1.893,1.893,0,0,0-.234,1Z" transform="translate(-679.5 -190.556)" fill="#002672"/>
        <path id="Path_375" data-name="Path 375" d="M795.817,191.113h-.351v-.5h.351Zm0,4.105h-.351v-3.191h.351Z" transform="translate(-681.706 -190.556)" fill="#002672"/>
        <path id="Path_376" data-name="Path 376" d="M797.932,192.869l.033.558a1.136,1.136,0,0,1,.414-.456,1.152,1.152,0,0,1,.618-.16.983.983,0,0,1,.791.317,1.5,1.5,0,0,1,.271.99v1.943H799.7v-1.944a1.158,1.158,0,0,0-.205-.777.743.743,0,0,0-.582-.227.911.911,0,0,0-.606.2,1.1,1.1,0,0,0-.338.521v2.231h-.354v-3.191Z" transform="translate(-682.532 -191.397)" fill="#002672"/>
        <path id="Path_377" data-name="Path 377" d="M802.85,194.491a2.067,2.067,0,0,1,.326-1.222,1.05,1.05,0,0,1,.907-.459,1.118,1.118,0,0,1,.587.149,1.192,1.192,0,0,1,.411.42l.041-.51h.3v3.15a1.352,1.352,0,0,1-.341.973,1.248,1.248,0,0,1-.948.357,2.312,2.312,0,0,1-.49-.056,1.926,1.926,0,0,1-.454-.153l.091-.3a1.808,1.808,0,0,0,.4.143,1.966,1.966,0,0,0,.449.049.892.892,0,0,0,.7-.268,1.09,1.09,0,0,0,.237-.746v-.4a1.116,1.116,0,0,1-.41.373,1.222,1.222,0,0,1-.578.131,1.069,1.069,0,0,1-.9-.428,1.832,1.832,0,0,1-.326-1.141Zm.354.063a1.608,1.608,0,0,0,.236.923.793.793,0,0,0,.7.345.979.979,0,0,0,.571-.158,1.009,1.009,0,0,0,.353-.435v-1.48a1.116,1.116,0,0,0-.337-.458.9.9,0,0,0-.58-.179.776.776,0,0,0-.7.385,1.858,1.858,0,0,0-.239.995Z" transform="translate(-684.539 -191.397)" fill="#002672"/>
        <path id="Path_378" data-name="Path 378" d="M813.925,194.029l.006.018a1.5,1.5,0,0,1-.46,1.016,1.542,1.542,0,0,1-1.082.37,1.444,1.444,0,0,1-1.156-.518,2,2,0,0,1-.439-1.34v-.7a2,2,0,0,1,.439-1.34,1.438,1.438,0,0,1,1.156-.52,1.558,1.558,0,0,1,1.085.362,1.488,1.488,0,0,1,.457,1.021l-.006.017h-.33a1.331,1.331,0,0,0-.367-.817,1.163,1.163,0,0,0-.839-.284,1.089,1.089,0,0,0-.9.436,1.763,1.763,0,0,0-.341,1.117v.7a1.769,1.769,0,0,0,.341,1.124,1.091,1.091,0,0,0,.9.434,1.188,1.188,0,0,0,.84-.276,1.3,1.3,0,0,0,.366-.827Z" transform="translate(-687.587 -190.709)" fill="#002672"/>
        <path id="Path_379" data-name="Path 379" d="M816.88,194.417a1.714,1.714,0,0,1,.386-1.156,1.39,1.39,0,0,1,2.05,0,1.717,1.717,0,0,1,.386,1.156v.1a1.719,1.719,0,0,1-.385,1.158,1.394,1.394,0,0,1-2.051,0,1.714,1.714,0,0,1-.386-1.158Zm.354.1a1.515,1.515,0,0,0,.28.931.991.991,0,0,0,1.556,0,1.515,1.515,0,0,0,.282-.931v-.1a1.506,1.506,0,0,0-.283-.925.985.985,0,0,0-1.554,0,1.513,1.513,0,0,0-.28.925Z" transform="translate(-689.923 -191.397)" fill="#002672"/>
        <path id="Path_380" data-name="Path 380" d="M823.1,197.782h-.4V197.3h.4Z" transform="translate(-692.155 -193.119)" fill="#002672"/>
        <path id="Path_381" data-name="Path 381" d="M827.89,195.109h2.124v.3h-2.478v-4.294h.354Z" transform="translate(-694.011 -190.747)" fill="#002672"/>
        <path id="Path_382" data-name="Path 382" d="M833.054,195.109h2.124v.3H832.7v-4.294h.354Z" transform="translate(-695.993 -190.747)" fill="#002672"/>
        <path id="Path_383" data-name="Path 383" d="M840.4,194.029l.006.018a1.49,1.49,0,0,1-.46,1.016,1.54,1.54,0,0,1-1.082.37,1.445,1.445,0,0,1-1.156-.518,2,2,0,0,1-.439-1.34v-.7a2.006,2.006,0,0,1,.439-1.34,1.44,1.44,0,0,1,1.156-.52,1.557,1.557,0,0,1,1.085.362,1.483,1.483,0,0,1,.457,1.021l-.006.017h-.331a1.331,1.331,0,0,0-.367-.817,1.166,1.166,0,0,0-.839-.284,1.089,1.089,0,0,0-.9.436,1.759,1.759,0,0,0-.341,1.117v.7a1.765,1.765,0,0,0,.341,1.124,1.091,1.091,0,0,0,.9.434,1.191,1.191,0,0,0,.841-.276,1.3,1.3,0,0,0,.365-.827Z" transform="translate(-697.746 -190.709)" fill="#002672"/>
      </g>
    </g>
    <g id="Group_341" data-name="Group 341" transform="translate(609.939 154.934)">
      <path id="Path_286" data-name="Path 286" d="M693.088,170.23a.933.933,0,0,0,.937-.877c.006-.112.008-.224.008-.338a6.7,6.7,0,0,0-2.121-4.983,7.291,7.291,0,0,0-5.255-1.978H686.6a7.293,7.293,0,0,0-5.255,1.978,6.7,6.7,0,0,0-2.121,4.983c0,4.026,3.244,6.938,7.436,6.938a7.318,7.318,0,0,0,5.173-1.919.829.829,0,0,0,.017-1.173c-.016-.017-.033-.033-.051-.048l-1.628-1.424a.839.839,0,0,0-1.091,0,3.274,3.274,0,0,1-2.231.777,2.8,2.8,0,0,1-2.878-1.911h0v0l-.007-.019h5.058l.278-.008v.008Zm-8.456-2.683h-.6a2.835,2.835,0,0,1,5.2,0Z" transform="translate(-636.521 -157.743)" fill="#002672"/>
      <path id="Path_287" data-name="Path 287" d="M671.174,162.594c-4.365,0-7.532,2.831-7.621,6.95h0c0,.062,0,.127,0,.192v5.583a.844.844,0,0,0,.844.843H667.7a.843.843,0,0,0,.844-.843v-5.775a2.616,2.616,0,0,1,2.6-2.829,2.727,2.727,0,0,1,.587.062.843.843,0,0,0,.958-.534,8.8,8.8,0,0,1,1.133-2.079.839.839,0,0,0-.466-1.307A8.934,8.934,0,0,0,671.174,162.594Z" transform="translate(-630.509 -157.952)" fill="#002672"/>
      <path id="Path_288" data-name="Path 288" d="M644.658,162.056c-4.426,0-7.625,2.915-7.625,7.128a6.521,6.521,0,0,0,6.8,6.773,4.89,4.89,0,0,0,4.012-1.759v.957a.47.47,0,0,0,.47.47h3.367a.555.555,0,0,0,.558-.552v-5.815C652.236,165.016,649.063,162.056,644.658,162.056Zm0,9.78a2.839,2.839,0,0,1-.024-5.66,2.646,2.646,0,0,1,2.605,2.889A2.552,2.552,0,0,1,644.658,171.836Z" transform="translate(-620.335 -157.746)" fill="#002672"/>
      <path id="Path_289" data-name="Path 289" d="M624.209,168.348a.821.821,0,0,0-1.012-.062h0a4.982,4.982,0,0,1-3.069,1.014,4.8,4.8,0,0,1-4.874-5.149c0-3.032,1.99-5.149,4.839-5.149a5.09,5.09,0,0,1,3.1,1.024h0a.829.829,0,0,0,1.005-.034l1.751-1.565h0l.11-.1a.831.831,0,0,0,.062-1.174c-.015-.017-.031-.034-.049-.05s-.055-.048-.083-.073a9.638,9.638,0,0,0-6.029-1.969c-5.8,0-10.017,3.837-10.017,9.121,0,5.266,4.227,9.088,10.051,9.088a9.617,9.617,0,0,0,5.793-1.845c.094-.081.189-.163.28-.25a.826.826,0,0,0,.015-1.169l-.031-.03Z" transform="translate(-609.939 -155.062)" fill="#002672"/>
    </g>
    <g id="Group_342" data-name="Group 342" transform="translate(668.494 154.728)">
      <path id="Path_290" data-name="Path 290" d="M834.8,170.23a.933.933,0,0,0,.937-.877q.008-.167.009-.338a6.693,6.693,0,0,0-2.121-4.983,7.29,7.29,0,0,0-5.254-1.978h-.062a7.29,7.29,0,0,0-5.254,1.978,6.7,6.7,0,0,0-2.121,4.983c0,4.026,3.244,6.938,7.436,6.938a7.316,7.316,0,0,0,5.172-1.919.829.829,0,0,0,.017-1.173c-.016-.017-.033-.033-.051-.048l-1.628-1.424a.839.839,0,0,0-1.091,0,3.271,3.271,0,0,1-2.231.777,2.8,2.8,0,0,1-2.878-1.911h0v0a.066.066,0,0,0-.007-.019h5.058l.277-.008v.008Zm-8.456-2.683h-.6a2.835,2.835,0,0,1,5.2,0Z" transform="translate(-749.452 -157.537)" fill="#46a425"/>
      <path id="Path_291" data-name="Path 291" d="M799.931,169.015c0-4.073,3.244-6.964,7.581-6.964a7.185,7.185,0,0,1,5.025,1.891.832.832,0,0,1,.037,1.175c-.016.017-.033.033-.05.049l-1.892,1.691a.82.82,0,0,1-1.093.007,2.818,2.818,0,0,0-1.932-.74,2.886,2.886,0,0,0-.247,5.721,2.529,2.529,0,0,0,.273.009,2.78,2.78,0,0,0,1.911-.73.82.82,0,0,1,1.085.01l1.893,1.678a.827.827,0,0,1,.074,1.167c-.014.017-.029.032-.044.047a7.151,7.151,0,0,1-5.012,1.925C803.175,175.954,799.931,173.042,799.931,169.015Z" transform="translate(-741.392 -157.537)" fill="#46a425"/>
      <path id="Path_292" data-name="Path 292" d="M712.788,173.145a18.833,18.833,0,0,1-7.32-1.44.845.845,0,0,1-.455-1.105h0l1.056-2.513a.84.84,0,0,1,.777-.513.876.876,0,0,1,.308.057,16.741,16.741,0,0,0,6.084,1.131c.543,0,2.195,0,2.195-1.294,0-.959-.96-1.261-3.257-1.612-5.085-.722-7.064-2.205-7.064-5.29,0-3.6,3.04-5.837,7.933-5.837a19.512,19.512,0,0,1,6.734,1.322.849.849,0,0,1,.474.474.832.832,0,0,1-.014.658l-1.122,2.482a.841.841,0,0,1-.769.493.866.866,0,0,1-.28-.047,17,17,0,0,0-5.347-1c-1.572,0-1.808.728-1.808,1.162,0,.751.637,1.062,2.964,1.45,5.2.8,7.325,2.4,7.325,5.517C721.205,170.884,717.98,173.145,712.788,173.145Z" transform="translate(-704.948 -154.728)" fill="#46a425"/>
      <path id="Path_293" data-name="Path 293" d="M769.577,162.594H772.9a.81.81,0,0,1,.809.809v5.584c0,4.476-2.913,7.175-7.009,7.175-4.168,0-7.033-2.7-7.033-7.175V163.4a.809.809,0,0,1,.809-.809h3.306a.81.81,0,0,1,.809.809v6.318a2.1,2.1,0,1,0,4.167,0V163.4a.81.81,0,0,1,.81-.809Z" transform="translate(-725.945 -157.746)" fill="#46a425"/>
      <path id="Path_294" data-name="Path 294" d="M791.962,162.594c-4.365,0-7.532,2.831-7.621,6.95h0c0,.062,0,.127,0,.192v5.583a.844.844,0,0,0,.844.843h3.306a.843.843,0,0,0,.843-.843v-5.775a2.616,2.616,0,0,1,2.6-2.829,2.728,2.728,0,0,1,.587.062.843.843,0,0,0,.958-.534,8.807,8.807,0,0,1,1.133-2.079.839.839,0,0,0-.466-1.307A8.935,8.935,0,0,0,791.962,162.594Z" transform="translate(-735.41 -157.746)" fill="#46a425"/>
      <path id="Path_295" data-name="Path 295" d="M733.154,168.994c0-4,3.2-6.938,7.625-6.938,4.381,0,7.581,2.913,7.581,6.914s-3.2,6.986-7.6,6.986C736.327,175.956,733.154,173,733.154,168.994Zm10.206,0a2.6,2.6,0,0,0-2.6-2.818,2.571,2.571,0,0,0-2.612,2.529q0,.122.007.244a2.664,2.664,0,0,0,2.629,2.889A2.618,2.618,0,0,0,743.36,168.994Z" transform="translate(-715.77 -157.54)" fill="#46a425"/>
    </g>
  </g>
</svg>
