<svg id="Group_290" data-name="Group 290" xmlns="http://www.w3.org/2000/svg" width="26.633" height="30.039" viewBox="0 0 26.633 30.039">
  <path id="Path_258" data-name="Path 258" d="M718.223,437.8a2.455,2.455,0,0,0-.549,1.549v13.192a2.471,2.471,0,0,0,2.468,2.468h.335l.06.06.06-.06h20.787l.06.06.06-.06h.335a2.471,2.471,0,0,0,2.468-2.468V439.345a2.456,2.456,0,0,0-.55-1.549.652.652,0,0,0-.191-.473l-12.112-12.112a.675.675,0,0,0-.928,0l-12.112,12.112A.652.652,0,0,0,718.223,437.8Zm3.471,16.112,6.189-6.189,2.644,2.643a.656.656,0,0,0,.928,0l2.644-2.643,6.189,6.189Zm1.986-11.877v-4.606h14.841v4.386l-7.531,7.531Zm19.53-2.687v13.192a1.373,1.373,0,0,1-1.1,1.343l-7.089-7.089,8.042-8.042A1.354,1.354,0,0,1,743.21,439.345ZM730.99,426.6l11.184,11.184-2.865,2.865v-3.621a.394.394,0,0,0-.394-.394H723.286a.394.394,0,0,0-.394.394v3.841l-3.086-3.086Zm-12.22,12.742a1.354,1.354,0,0,1,.142-.6l8.042,8.042-7.089,7.089a1.373,1.373,0,0,1-1.1-1.343Z" transform="translate(-717.674 -425.027)"/>
</svg>
