<svg width="164" height="30" viewBox="0 0 164 30" fill="none" xmlns="http://www.w3.org/2000/svg">
<path d="M31.2 1.08V29H25.6V10.84L18.12 29H13.88L6.36 10.84V29H0.76V1.08H7.12L16 21.84L24.88 1.08H31.2ZM42.3366 1.08V29H36.7366V1.08H42.3366ZM57.5094 29.28C55.5627 29.28 53.8027 28.9467 52.2294 28.28C50.6827 27.6133 49.456 26.6533 48.5494 25.4C47.6427 24.1467 47.176 22.6667 47.1494 20.96H53.1494C53.2294 22.1067 53.6294 23.0133 54.3494 23.68C55.096 24.3467 56.1094 24.68 57.3894 24.68C58.696 24.68 59.7227 24.3733 60.4694 23.76C61.216 23.12 61.5894 22.2933 61.5894 21.28C61.5894 20.4533 61.336 19.7733 60.8294 19.24C60.3227 18.7067 59.6827 18.2933 58.9094 18C58.1627 17.68 57.1227 17.3333 55.7894 16.96C53.976 16.4267 52.496 15.9067 51.3494 15.4C50.2294 14.8667 49.256 14.08 48.4294 13.04C47.6294 11.9733 47.2294 10.56 47.2294 8.8C47.2294 7.14667 47.6427 5.70667 48.4694 4.48C49.296 3.25333 50.456 2.32 51.9494 1.68C53.4427 1.01333 55.1494 0.68 57.0694 0.68C59.9494 0.68 62.2827 1.38667 64.0694 2.8C65.8827 4.18667 66.8827 6.13333 67.0694 8.64H60.9094C60.856 7.68 60.4427 6.89333 59.6694 6.28C58.9227 5.64 57.9227 5.32 56.6694 5.32C55.576 5.32 54.696 5.6 54.0294 6.16C53.3894 6.72 53.0694 7.53333 53.0694 8.6C53.0694 9.34667 53.3094 9.97333 53.7894 10.48C54.296 10.96 54.9094 11.36 55.6294 11.68C56.376 11.9733 57.416 12.32 58.7494 12.72C60.5627 13.2533 62.0427 13.7867 63.1894 14.32C64.336 14.8533 65.3227 15.6533 66.1494 16.72C66.976 17.7867 67.3894 19.1867 67.3894 20.92C67.3894 22.4133 67.0027 23.8 66.2294 25.08C65.456 26.36 64.3227 27.3867 62.8294 28.16C61.336 28.9067 59.5627 29.28 57.5094 29.28ZM81.8844 29.28C79.9377 29.28 78.1777 28.9467 76.6044 28.28C75.0577 27.6133 73.831 26.6533 72.9244 25.4C72.0177 24.1467 71.551 22.6667 71.5244 20.96H77.5244C77.6044 22.1067 78.0044 23.0133 78.7244 23.68C79.471 24.3467 80.4844 24.68 81.7644 24.68C83.071 24.68 84.0977 24.3733 84.8444 23.76C85.591 23.12 85.9644 22.2933 85.9644 21.28C85.9644 20.4533 85.711 19.7733 85.2044 19.24C84.6977 18.7067 84.0577 18.2933 83.2844 18C82.5377 17.68 81.4977 17.3333 80.1644 16.96C78.351 16.4267 76.871 15.9067 75.7244 15.4C74.6044 14.8667 73.631 14.08 72.8044 13.04C72.0044 11.9733 71.6044 10.56 71.6044 8.8C71.6044 7.14667 72.0177 5.70667 72.8444 4.48C73.671 3.25333 74.831 2.32 76.3244 1.68C77.8177 1.01333 79.5244 0.68 81.4444 0.68C84.3244 0.68 86.6577 1.38667 88.4444 2.8C90.2577 4.18667 91.2577 6.13333 91.4444 8.64H85.2844C85.231 7.68 84.8177 6.89333 84.0444 6.28C83.2977 5.64 82.2977 5.32 81.0444 5.32C79.951 5.32 79.071 5.6 78.4044 6.16C77.7644 6.72 77.4444 7.53333 77.4444 8.6C77.4444 9.34667 77.6844 9.97333 78.1644 10.48C78.671 10.96 79.2844 11.36 80.0044 11.68C80.751 11.9733 81.791 12.32 83.1244 12.72C84.9377 13.2533 86.4177 13.7867 87.5644 14.32C88.711 14.8533 89.6977 15.6533 90.5244 16.72C91.351 17.7867 91.7644 19.1867 91.7644 20.92C91.7644 22.4133 91.3777 23.8 90.6044 25.08C89.831 26.36 88.6977 27.3867 87.2044 28.16C85.711 28.9067 83.9377 29.28 81.8844 29.28ZM102.219 1.08V29H96.6194V1.08H102.219ZM120.712 29.28C118.099 29.28 115.699 28.6667 113.512 27.44C111.326 26.2133 109.592 24.52 108.312 22.36C107.032 20.1733 106.392 17.7067 106.392 14.96C106.392 12.24 107.032 9.8 108.312 7.64C109.592 5.45333 111.326 3.74666 113.512 2.52C115.699 1.29333 118.099 0.68 120.712 0.68C123.352 0.68 125.752 1.29333 127.912 2.52C130.099 3.74666 131.819 5.45333 133.072 7.64C134.352 9.8 134.992 12.24 134.992 14.96C134.992 17.7067 134.352 20.1733 133.072 22.36C131.819 24.52 130.099 26.2133 127.912 27.44C125.726 28.6667 123.326 29.28 120.712 29.28ZM120.712 24.28C122.392 24.28 123.872 23.9067 125.152 23.16C126.432 22.3867 127.432 21.2933 128.152 19.88C128.872 18.4667 129.232 16.8267 129.232 14.96C129.232 13.0933 128.872 11.4667 128.152 10.08C127.432 8.66667 126.432 7.58667 125.152 6.84C123.872 6.09333 122.392 5.72 120.712 5.72C119.032 5.72 117.539 6.09333 116.232 6.84C114.952 7.58667 113.952 8.66667 113.232 10.08C112.512 11.4667 112.152 13.0933 112.152 14.96C112.152 16.8267 112.512 18.4667 113.232 19.88C113.952 21.2933 114.952 22.3867 116.232 23.16C117.539 23.9067 119.032 24.28 120.712 24.28ZM163.038 29H157.438L144.758 9.84V29H139.158V1.04H144.758L157.438 20.24V1.04H163.038V29Z" fill="#48A951"/>
</svg>
