<svg width="220" height="206" viewBox="0 0 220 206" fill="none" xmlns="http://www.w3.org/2000/svg">
<path d="M179.932 107.073C178.608 113.32 177.793 119.334 176.043 125.064C171.628 139.616 162.971 152.519 151.18 162.123C139.389 171.727 125.001 177.594 109.857 178.973C107.857 179.173 107.128 179.783 107.18 181.848C107.313 187.148 107.234 192.448 107.229 197.754C107.251 198.707 107.22 199.661 107.136 200.611C106.799 203.605 105.118 205.172 102.417 205.086C99.7509 205.001 98.0839 203.293 98.0419 200.262C97.9609 194.43 98.0149 188.597 98.0129 182.762V179.518C94.3599 178.95 90.8929 178.572 87.4969 177.857C53.6509 170.734 29.4969 143.857 26.1129 109.524C25.9229 107.598 25.2979 107.008 23.4129 107.038C17.4759 107.138 11.5369 107.09 5.59788 107.067C1.96488 107.054 -0.0311298 105.391 -0.00212978 102.485C0.0288702 99.6189 2.03287 98.0269 5.70687 98.0159C11.5389 97.9979 17.3729 97.9419 23.2069 98.0499C25.1859 98.0869 25.9239 97.5589 26.1249 95.4499C27.5036 80.2507 33.3884 65.8091 43.0254 53.9751C52.6624 42.141 65.6129 33.4533 80.2179 29.0249C85.8539 27.3249 91.7709 26.5619 98.0179 25.2709V8.52887C98.0179 7.36287 97.9849 6.19487 98.0279 5.02887C98.1439 1.79987 99.7489 0.0288822 102.537 -0.000117837C105.325 -0.0291178 107.075 1.64489 107.158 4.90989C107.303 10.6329 107.219 16.3609 107.23 22.0869C107.23 23.2319 107.23 24.3759 107.23 25.7489C127.3 27.3399 144.18 35.1489 158.444 49.7309L151.023 55.2009C135.389 40.0699 116.847 33.1399 95.3379 35.3059C79.1929 36.759 64.1936 44.2601 53.3459 56.3059C29.9379 81.8229 28.7399 118.937 50.1999 145.273C60.3909 157.745 74.6918 166.178 90.5379 169.061C106.384 171.943 122.739 169.086 136.669 161.002C165.219 144.321 180.469 106.46 162.492 70.7659L169.792 65.3659C175.636 75.5379 178.426 86.3819 179.457 98.0139C186.491 98.0139 193.257 98.0549 200.024 97.9909C202.283 97.9699 203.994 98.6989 204.85 100.839C206.119 104.01 203.981 106.992 200.321 107.039C194.596 107.118 188.868 107.063 183.142 107.064L179.932 107.073Z" fill="#48A951"/>
<path d="M146.887 82.1919C156.158 100.092 152.495 128.87 128.728 144.031C107.034 157.87 77.3468 152.061 62.7628 131.108C47.1968 108.745 51.8258 79.2269 73.4748 63.1389C95.2168 46.9819 122.765 53.2129 135.417 66.6559L128.2 71.9729C123.106 67.887 117.142 65.027 110.767 63.6139C89.5138 59.2639 68.5148 72.6139 63.7948 93.5549C62.6101 98.6577 62.4463 103.944 63.3128 109.111C64.1793 114.277 66.059 119.221 68.8437 123.658C71.6285 128.095 75.2633 131.938 79.5389 134.965C83.8145 137.992 88.6465 140.143 93.7568 141.295C108.339 144.521 121.226 140.657 131.468 129.781C141.789 118.821 144.831 105.695 140.629 91.1969C139.752 88.1729 140.159 86.5229 142.822 85.1029C144.239 84.2232 145.597 83.2508 146.887 82.1919V82.1919Z" fill="#48A951"/>
<path d="M199.01 10.7207C199.564 16.6207 200.161 21.8587 200.501 27.1147C200.656 29.5057 201.45 30.9257 203.801 31.8257C208.818 33.7417 213.719 35.9637 219.193 38.2827C216.775 40.0757 214.786 41.5617 212.784 43.0317C205.864 48.1137 198.872 53.1017 192.063 58.3317C191.381 58.9624 190.512 59.3535 189.588 59.4455C188.664 59.5376 187.735 59.3256 186.943 58.8417C184.273 57.5597 181.437 56.6177 178.787 55.2987C178.063 54.8844 177.226 54.7133 176.397 54.8109C175.569 54.9085 174.794 55.2695 174.187 55.8407C154.738 70.1867 135.231 84.4537 115.809 98.8337C115.341 99.2566 114.962 99.7679 114.694 100.338C114.425 100.908 114.272 101.526 114.243 102.156C114.107 107.564 111.178 111.913 106.243 113.577C103.907 114.337 101.391 114.344 99.0513 113.596C96.7114 112.848 94.6658 111.384 93.2038 109.41C91.7647 107.418 90.9885 105.025 90.9849 102.568C90.9813 100.111 91.7506 97.7152 93.1838 95.7197C96.1838 91.5687 101.445 90.0597 106.527 91.5397C107.229 91.721 107.96 91.7609 108.678 91.6568C109.396 91.5528 110.086 91.307 110.708 90.9337C130.085 76.8467 149.361 62.6207 168.708 48.4937C170.275 47.3497 170.947 46.1997 170.657 44.2717C170.296 41.8647 170.4 39.3717 169.888 37.0057C169.135 33.5257 170.377 31.4627 173.269 29.4527C181.787 23.5267 190.068 17.2617 199.01 10.7207Z" fill="#48A951"/>
</svg>
