<svg xmlns="http://www.w3.org/2000/svg" width="26" height="22" viewBox="0 0 26 22">
  <g id="mobile-filter" transform="translate(-3 -5)">
    <path id="Path_384" data-name="Path 384" d="M28,9H11a1,1,0,0,1,0-2H28a1,1,0,0,1,0,2Z"/>
    <path id="Path_385" data-name="Path 385" d="M7,9H4A1,1,0,0,1,4,7H7A1,1,0,0,1,7,9Z"/>
    <path id="Path_386" data-name="Path 386" d="M21,17H4a1,1,0,0,1,0-2H21a1,1,0,0,1,0,2Z"/>
    <path id="Path_387" data-name="Path 387" d="M11,25H4a1,1,0,0,1,0-2h7a1,1,0,0,1,0,2Z"/>
    <path id="Path_388" data-name="Path 388" d="M9,11a3,3,0,1,1,3-3A3,3,0,0,1,9,11ZM9,7a1,1,0,1,0,1,1A1,1,0,0,0,9,7Z"/>
    <path id="Path_389" data-name="Path 389" d="M23,19a3,3,0,1,1,3-3A3,3,0,0,1,23,19Zm0-4a1,1,0,1,0,1,1A1,1,0,0,0,23,15Z"/>
    <path id="Path_390" data-name="Path 390" d="M13,27a3,3,0,1,1,3-3A3,3,0,0,1,13,27Zm0-4a1,1,0,1,0,1,1A1,1,0,0,0,13,23Z"/>
    <path id="Path_391" data-name="Path 391" d="M28,17H25a1,1,0,0,1,0-2h3a1,1,0,0,1,0,2Z"/>
    <path id="Path_392" data-name="Path 392" d="M28,25H15a1,1,0,0,1,0-2H28a1,1,0,0,1,0,2Z"/>
  </g>
</svg>
