<svg xmlns="http://www.w3.org/2000/svg" width="29.993" height="29.993" viewBox="0 0 29.993 29.993">
  <g id="Group_421" data-name="Group 421" transform="translate(-631.155 53.622)">
    <path id="Rectangle_948" data-name="Rectangle 948" d="M6.16,0H23.832a6.16,6.16,0,0,1,6.16,6.16V23.831a6.162,6.162,0,0,1-6.162,6.162H6.16A6.16,6.16,0,0,1,0,23.833V6.16A6.16,6.16,0,0,1,6.16,0Z" transform="translate(631.155 -53.622)" fill="#bc081c"/>
    <g id="Group_380" data-name="Group 380">
      <path id="Path_329" data-name="Path 329" d="M656.225-38.625a10.073,10.073,0,0,1-10.074,10.073,10.073,10.073,0,0,1-10.073-10.073A10.073,10.073,0,0,1,646.151-48.7,10.073,10.073,0,0,1,656.225-38.625Z" fill="#bc081c" fill-rule="evenodd"/>
      <g id="UG8QpP">
        <g id="Group_379" data-name="Group 379">
          <g id="Group_378" data-name="Group 378">
            <path id="Path_330" data-name="Path 330" d="M645.03-33.915a3.322,3.322,0,0,0,3.433.943,6.978,6.978,0,0,0,.741-.27,4.62,4.62,0,0,0,1.289-.815,6.388,6.388,0,0,0,1.944-3.642,5.959,5.959,0,0,0-1.127-5.021,5.935,5.935,0,0,0-2.762-1.852,7.17,7.17,0,0,0-4.518-.094,6.613,6.613,0,0,0-1.219.535,5.985,5.985,0,0,0-2.844,3.542,7.131,7.131,0,0,0-.223,1.245,5.31,5.31,0,0,0,.586,2.917c.073.143.164.274.233.418a2.535,2.535,0,0,0,.71.914.754.754,0,0,0,.495.19c.254-.017.318-.261.388-.471a7.028,7.028,0,0,0,.154-.716.582.582,0,0,0-.084-.54,4.267,4.267,0,0,1,.616-5.21,4.659,4.659,0,0,1,4.068-1.226A3.952,3.952,0,0,1,650-40.714a5.229,5.229,0,0,1,.294,1.786,5.487,5.487,0,0,1-.426,2.264,4,4,0,0,1-1.221,1.68c-.821.62-2.546.889-2.893-.4a2.489,2.489,0,0,1-.032-1.052c.162-.81.473-1.579.66-2.381a2.642,2.642,0,0,0,.047-1.295,1.138,1.138,0,0,0-.992-.92,1.473,1.473,0,0,0-1.432.542,3.262,3.262,0,0,0-.439,3.065,1.187,1.187,0,0,1,.038.678c-.325,1.319-.609,2.648-.948,3.963a9.132,9.132,0,0,0-.264,2.731,4.067,4.067,0,0,0,.076.763c.038.167.1.406.264.494.228.121.421-.169.528-.327a8.857,8.857,0,0,0,1-2.025c.162-.46.288-.931.411-1.4C644.713-32.719,644.952-33.575,645.03-33.915Z" fill="#fff" fill-rule="evenodd"/>
          </g>
        </g>
      </g>
    </g>
  </g>
</svg>
