<svg xmlns="http://www.w3.org/2000/svg" width="57.328" height="58" viewBox="0 0 57.328 58">
  <g id="noun_materials_308312" transform="translate(-6.615 -5.977)">
    <circle id="Ellipse_47" data-name="Ellipse 47" cx="1.727" cy="1.727" r="1.727" transform="translate(21.461 41.742)"/>
    <path id="Path_111" data-name="Path 111" d="M63.944,5.977H25.232V25.265H6.615V63.977H45.327V44.689H63.944V5.977ZM60.93,14.225l-15.6,15.6V25.265H39.589l16.14-16.14-.134-.134H60.93v5.234ZM42.313,44.592c-2.586-.435-6.6-.925-8.046,3.94-.772,2.6-2.862,5.585-4.542,7.984a25.689,25.689,0,0,0-2.75,4.447H22.2a10.358,10.358,0,0,1,2.162-6.38,10.206,10.206,0,0,1,2.273-1.914,10.346,10.346,0,0,0,5.141-7.815,14.938,14.938,0,0,0-1.012-8.543,15.189,15.189,0,0,1-1.078-8.032H34.1c.125.615.231,1.252.343,1.926.632,3.808,1.419,8.546,6.479,11.15.283.146.467.247.584.314a2.155,2.155,0,0,0,.805.527v2.4Zm-24.49,2.68a13.809,13.809,0,0,1,.3-4.591,12.781,12.781,0,0,1,2.062-4.158A17.29,17.29,0,0,0,23.53,28.279h3.131a18.073,18.073,0,0,0,1.277,9.071,12.085,12.085,0,0,1,.863,7.039c-.547,3.5-2.09,4.566-3.877,5.8a12.7,12.7,0,0,0-2.912,2.51,13.346,13.346,0,0,0-2.823,8.263H16.04C18.135,53.589,17.963,50.1,17.823,47.272Zm24.49-8.591-.011-.006c-3.714-1.911-4.283-5.337-4.885-8.964-.078-.473-.162-.954-.25-1.433h5.146v10.4ZM28.246,22.6,41.853,8.991H51.6L35.327,25.265H28.246ZM37.591,8.991l-9.346,9.346V8.991ZM14.311,28.279A47.068,47.068,0,0,1,11.5,36.051c-.614,1.459-1.254,2.983-1.869,4.562V28.279Zm-4.682,23c.832-4.99,2.857-9.807,4.647-14.06a42.91,42.91,0,0,0,3.093-8.94h3.145a14.3,14.3,0,0,1-2.839,8.574A15.612,15.612,0,0,0,15.2,41.924a16.63,16.63,0,0,0-.391,5.5c.134,2.71.3,6.068-1.911,13.542H9.629V51.28Zm20.734,9.684c.517-.842,1.236-1.87,1.831-2.719,1.8-2.578,4.051-5.786,4.962-8.854.678-2.283,1.9-2.3,4.957-1.775l.2.034V60.963ZM45.327,34.09l15.6-15.6V28.643L47.9,41.675H45.327V34.09Zm6.833,7.585,8.77-8.77v8.77Z"/>
  </g>
</svg>
