<svg xmlns="http://www.w3.org/2000/svg" width="73.049" height="65.714" viewBox="0 0 73.049 65.714">
  <path id="service-img4" d="M37.124,11.532a23.975,23.975,0,0,0-1.5,47.9,5.092,5.092,0,0,0,1.5.15,5.092,5.092,0,0,0,1.5-.15,23.975,23.975,0,0,0-1.5-47.9ZM53.74,22.908A25.546,25.546,0,0,1,49.7,25a23.648,23.648,0,0,0-4.341-8.682A20.376,20.376,0,0,1,53.74,22.908ZM48.2,35.632a28.027,28.027,0,0,1-.6,6.287,40.493,40.493,0,0,0-10.628-1.5,35.092,35.092,0,0,0-10.628,1.5,42.631,42.631,0,0,1-.6-6.287,46.966,46.966,0,0,1,.6-6.736,40.215,40.215,0,0,0,10.478,1.347A38.6,38.6,0,0,0,47.3,28.9,20.353,20.353,0,0,1,48.2,35.632ZM38.172,56.439h-2.4c-3.742-.748-7.185-5.389-8.832-11.526a35.021,35.021,0,0,1,9.88-1.347,34.276,34.276,0,0,1,9.88,1.347C45.357,51.2,42.064,55.69,38.172,56.439ZM37.124,27.4a35.021,35.021,0,0,1-9.88-1.347c1.946-6.586,5.688-11.376,9.88-11.376s7.934,4.64,9.88,11.376A35.021,35.021,0,0,1,37.124,27.4ZM28.742,16.322A26.208,26.208,0,0,0,24.4,25a25.546,25.546,0,0,1-4.042-2.1A22.516,22.516,0,0,1,28.742,16.322ZM18.712,25.453A19.29,19.29,0,0,0,23.652,28a41.257,41.257,0,0,0-.748,7.634,58.177,58.177,0,0,0,.6,7.335,22.6,22.6,0,0,0-4.64,2.4l-.3.3a20.8,20.8,0,0,1-2.545-10.029A22.848,22.848,0,0,1,18.712,25.453Zm1.647,22.6c.15-.15.3-.15.3-.3a27.456,27.456,0,0,1,3.593-1.946,23.488,23.488,0,0,0,4.191,8.682A18.925,18.925,0,0,1,20.359,48.056Zm25.447,6.586A26.07,26.07,0,0,0,50,45.96a20.319,20.319,0,0,1,3.593,1.946c.15.15.3.15.3.3A22.688,22.688,0,0,1,45.806,54.642Zm9.73-9.131-.3-.3a33.648,33.648,0,0,0-4.64-2.4,38.313,38.313,0,0,0,.6-7.335,41.257,41.257,0,0,0-.748-7.634,38.119,38.119,0,0,0,4.94-2.545,21.049,21.049,0,0,1,2.694,10.179A20.371,20.371,0,0,1,55.536,45.511ZM38.621,66.917a1.414,1.414,0,0,1-1.5,1.5A32.857,32.857,0,0,1,4.342,37.278l-1.2,1.2a1.447,1.447,0,0,1-2.1,0,1.447,1.447,0,0,1,0-2.1l3.742-3.742a1.447,1.447,0,0,1,2.1,0l3.742,3.742a1.447,1.447,0,0,1,0,2.1,1.617,1.617,0,0,1-1.048.449,1.991,1.991,0,0,1-1.2-.449L7.336,37.428A29.944,29.944,0,0,0,37.124,65.42,1.414,1.414,0,0,1,38.621,66.917ZM73.2,34.584l-3.742,3.742a1.447,1.447,0,0,1-2.1,0l-3.593-3.742a1.482,1.482,0,0,1,2.1-2.1l1.048,1.048A30.024,30.024,0,0,0,37.124,5.694a1.414,1.414,0,0,1-1.5-1.5,1.414,1.414,0,0,1,1.5-1.5A32.81,32.81,0,0,1,69.906,33.536l1.2-1.2a1.447,1.447,0,0,1,2.1,0A1.625,1.625,0,0,1,73.2,34.584Z" transform="translate(-0.6 -2.7)"/>
</svg>
