<svg xmlns="http://www.w3.org/2000/svg" width="80" height="52.246" viewBox="0 0 80 52.246">
  <g id="Group_49" data-name="Group 49" transform="translate(8.2 14.15)">
    <path id="Path_93" data-name="Path 93" d="M50.125,38.1a1.623,1.623,0,0,1-.6-.072L24.865,29.973A1.932,1.932,0,0,1,23.6,28.181V-4.192a1.871,1.871,0,0,1,1.259-1.79l24.666-8.053a2.005,2.005,0,0,1,.632-.114,1.458,1.458,0,0,1,.552.109L75.386-5.985a1.933,1.933,0,0,1,1.265,1.792V28.1a1.872,1.872,0,0,1-1.259,1.791L50.724,38.024A1.621,1.621,0,0,1,50.125,38.1ZM51.991,5.2V33.7l8.643-2.792V20.13a1.784,1.784,0,0,1,1.78-1.864,1.845,1.845,0,0,1,1.865,1.864v9.5l8.643-2.792v-28.5ZM27.329,26.84,47.967,33.6h.379V5.2L39.7,2.408V17.164a1.865,1.865,0,0,1-3.73,0V1.131L27.329-1.66ZM47.676-5.482A1.894,1.894,0,0,1,49.464-4.27,1.844,1.844,0,0,1,48.34-1.887L43.57-.2l6.556,2.12,18.7-6.114-18.7-6.114-18.7,6.114,6.5,2.134,9.151-3.336A2.087,2.087,0,0,1,47.676-5.482Z" transform="translate(-4.851 0)"/>
    <path id="Path_94" data-name="Path 94" d="M-6.336,4.329A1.845,1.845,0,0,1-8.2,2.464,1.845,1.845,0,0,1-6.336.6h15A1.955,1.955,0,0,1,10.53,2.483,1.841,1.841,0,0,1,8.664,4.329Z" transform="translate(0 -2.25)"/>
    <path id="Path_95" data-name="Path 95" d="M-6.336,18.229A1.845,1.845,0,0,1-8.2,16.364,1.845,1.845,0,0,1-6.336,14.5h15a1.889,1.889,0,0,1,1.864,1.864,1.844,1.844,0,0,1-1.864,1.864Z" transform="translate(0 -4.37)"/>
    <path id="Path_96" data-name="Path 96" d="M-6.336,32.13A1.845,1.845,0,0,1-8.2,30.265,1.845,1.845,0,0,1-6.336,28.4h15a1.89,1.89,0,0,1,1.864,1.865A1.845,1.845,0,0,1,8.664,32.13Z" transform="translate(0 -6.491)"/>
  </g>
</svg>
