<svg xmlns="http://www.w3.org/2000/svg" width="65.815" height="66.069" viewBox="0 0 65.815 66.069">
  <g id="service-img1" transform="translate(37.217 4.26)">
    <g id="Group_421" data-name="Group 421">
      <g id="Group_420" data-name="Group 420">
        <path id="Path_351" data-name="Path 351" d="M28.119,10.29h0L1.819-4.11a.908.908,0,0,0-1,0c-3.3,1.8-20.3,10.8-26.2,14a1.193,1.193,0,0,0-.5.9v13.3l-2-.5a1.028,1.028,0,0,0-1.2.7l-.7,2.8-2.8.6a.918.918,0,0,0-.6.4,1.063,1.063,0,0,0-.1.8l.8,3.6-2.8,2.7a.908.908,0,0,0-.3.7.908.908,0,0,0,.3.7l2.4,2.2-.8,3.1a1.128,1.128,0,0,0,.1.8,1.47,1.47,0,0,0,.6.5l2.8.7.6,2.8a1.1,1.1,0,0,0,1.2.8l3.6-.8,2.7,2.6a.908.908,0,0,0,.7.3.908.908,0,0,0,.7-.3l2.3-2.3,3.1.8a1.028,1.028,0,0,0,1.2-.7l.7-2.8,2.1-.5,11.9,7.5h0a.749.749,0,0,0,.5.1.6.6,0,0,0,.4-.1h.1l26.4-14.1a1.05,1.05,0,0,0,.5-.9V11.19C28.719,10.89,28.519,10.49,28.119,10.29ZM1.319-2.11l24.3,13.3-7,3.8-24.4-13.3Zm11.4,20.9-25-13.6.6-.3,3.8-2,25.5,13.9v7.6l-4.4,2.4v-7.1A1.05,1.05,0,0,0,12.719,18.79Zm-27.2-12.5,24.6,13.3-8.8,4.8-24.1-13.6Zm.2,36.1a1.143,1.143,0,0,0-.8.7l-.6,2.4-2.7-.7a1.015,1.015,0,0,0-1,.3l-2,2-2.3-2.3a.908.908,0,0,0-.7-.3h-.2l-3.2.7-.5-2.3a1.143,1.143,0,0,0-.7-.8l-2.4-.6.6-2.7a1.015,1.015,0,0,0-.3-1l-2-2,2.3-2.3a1.4,1.4,0,0,0,.3-.9l-.8-3.2,2.5-.5a1.143,1.143,0,0,0,.8-.7l.6-2.4,2.7.7a1.015,1.015,0,0,0,1-.3l2-2,2.3,2.3a1.4,1.4,0,0,0,.9.3l3.2-.7.5,2.5a1.143,1.143,0,0,0,.7.8l2.4.6-.7,2.7a1.015,1.015,0,0,0,.3,1l2,2-2.2,2.1a1.4,1.4,0,0,0-.3.9l.7,3.2Zm4.6-.1-.8-3.5,2.6-2.7a.908.908,0,0,0,.3-.7.908.908,0,0,0-.3-.7l-2.4-2.3.8-3.1a1.128,1.128,0,0,0-.1-.8,1.47,1.47,0,0,0-.6-.5l-2.8-.7-.6-2.8a1.1,1.1,0,0,0-1.2-.8l-3.6.8-2.7-2.6a.967.967,0,0,0-1.4,0l-1.4,1.4v-11l24.2,13.7v22.4Zm12,6.5V26.19l8.9-4.9v7.1a1.05,1.05,0,0,0,.5.9.9.9,0,0,0,.5.1.9.9,0,0,0,.5-.1l6.4-3.5a1.05,1.05,0,0,0,.5-.9v-8.1l7.1-3.9v22.9Z" fill="#010101"/>
      </g>
    </g>
    <g id="Group_423" data-name="Group 423">
      <g id="Group_422" data-name="Group 422">
        <path id="Path_352" data-name="Path 352" d="M-26.181,47.79a1.04,1.04,0,0,0-1.3.6l-3,8.4-.4-2.2a.969.969,0,0,0-.7-.8,1.232,1.232,0,0,0-1,.2l-1.6,1.5,3.4-10a1.04,1.04,0,0,0-.6-1.3,1.04,1.04,0,0,0-1.3.6l-4.5,13.8a1.148,1.148,0,0,0,.4,1.2,1.048,1.048,0,0,0,1.2-.1l3.1-2.9.7,4.2a1.22,1.22,0,0,0,.9.8.9.9,0,0,0,1-.7l4.2-12.1A.82.82,0,0,0-26.181,47.79Z" fill="#010101"/>
      </g>
    </g>
    <g id="Group_425" data-name="Group 425">
      <g id="Group_424" data-name="Group 424">
        <path id="Path_353" data-name="Path 353" d="M-10.881,45.29a.917.917,0,0,0-1.3-.5.917.917,0,0,0-.5,1.3l3.8,9.3-1.7-1.4a.92.92,0,0,0-1-.1.871.871,0,0,0-.6.8l-.3,2.1-3.4-8.3a.917.917,0,0,0-1.3-.5.917.917,0,0,0-.5,1.3l4.9,11.9a1.007,1.007,0,0,0,1.1.6,1.061,1.061,0,0,0,.9-.9l.5-4.2,3.3,2.7a.91.91,0,0,0,1.2,0,.954.954,0,0,0,.3-1.2Z" fill="#010101"/>
      </g>
    </g>
    <g id="Group_427" data-name="Group 427">
      <g id="Group_426" data-name="Group 426">
        <path id="Path_354" data-name="Path 354" d="M-21.581,27.49a8.237,8.237,0,0,0-8.2,8.2,8.237,8.237,0,0,0,8.2,8.2h0a8.237,8.237,0,0,0,8.2-8.2A8.173,8.173,0,0,0-21.581,27.49Zm0,14.3h0a6.231,6.231,0,0,1-6.2-6.2,6.231,6.231,0,0,1,6.2-6.2,6.231,6.231,0,0,1,6.2,6.2A6.231,6.231,0,0,1-21.581,41.79Z" fill="#010101"/>
      </g>
    </g>
    <g id="Group_429" data-name="Group 429">
      <g id="Group_428" data-name="Group 428">
        <path id="Path_355" data-name="Path 355" d="M-18.381,32.69l-5,4.2-1.4-2.1a.984.984,0,0,0-1.4-.3.984.984,0,0,0-.3,1.4l2,3.1a1.794,1.794,0,0,0,.7.5h.2a1.072,1.072,0,0,0,.6-.2l5.9-4.9a.972.972,0,0,0,.1-1.4A.937.937,0,0,0-18.381,32.69Z" fill="#010101"/>
      </g>
    </g>
  </g>
</svg>
