<svg id="noun_payment_2281176" xmlns="http://www.w3.org/2000/svg" width="59" height="59" viewBox="0 0 59 59">
  <path id="Path_87" data-name="Path 87" d="M7.447,89.555a1.233,1.233,0,1,1,.877-.359,1.234,1.234,0,0,1-.877.359Z" transform="translate(-2.55 -35.706)"/>
  <path id="Path_88" data-name="Path 88" d="M11.407,85.379H0V82.426H8.454V67.292H0V64.339H11.407Z" transform="translate(0 -26.379)"/>
  <path id="Path_89" data-name="Path 89" d="M38.213,80.67H22.659V65.69l.175-.326a9.707,9.707,0,0,1,4.135-3.9,12.808,12.808,0,0,1,10.484-.275,30.693,30.693,0,0,1,3.139,1.5c.837.439,1.627.853,2.444,1.2a7.986,7.986,0,0,0,1.054.306c1.235.3,2.926.722,3.622,2.312a6.948,6.948,0,0,1,.444,3.206l7.425-.11,3.856-4.27a4.034,4.034,0,1,1,6,5.4L59.625,77.21Zm-12.6-2.953H37.976l20.146-3.255,5.114-5.707a1.081,1.081,0,0,0-1.607-1.446l-4.719,5.225-18.284.27-.043-2.953,6.613-.1a4.731,4.731,0,0,0-.189-2.065c-.112-.257-1.1-.5-1.625-.63a10,10,0,0,1-1.5-.453c-.93-.393-1.813-.856-2.666-1.3a28.06,28.06,0,0,0-2.836-1.358,9.863,9.863,0,0,0-8.059.146,7.083,7.083,0,0,0-2.712,2.367Z" transform="translate(-9.29 -24.683)"/>
  <path id="Path_90" data-name="Path 90" d="M69.947,6.59V3.451L60.542,0,42.376,9.34H26.7V31.317H62.69V25.093c.49.018.973.035,1.445.071.295.018.59.029.885.029a14.882,14.882,0,0,0,4.927-.879V21.157l-.041.018a12.132,12.132,0,0,1-5.575,1.044c-.537-.035-1.08-.059-1.64-.077-.944-.024-1.917-.018-2.95.018-1.422.047-2.944.159-4.608.33l-1.817.189a1.725,1.725,0,0,1-.472-3.416l6.879-1.192a.022.022,0,0,0,.018-.006,4.339,4.339,0,0,0,2.95-1.982A4.4,4.4,0,0,0,58.973,9.34H48.825L60.743,3.215Zm-10.974,5.7a1.405,1.405,0,0,1,.767.218,1.454,1.454,0,0,1,0,2.46,1.414,1.414,0,0,1-.519.195l-6.879,1.192a4.674,4.674,0,0,0,.8,9.281,4.282,4.282,0,0,0,.472-.024s4.8-.448,6.13-.5v3.251H29.65V12.29Z" transform="translate(-10.947)"/>
  <rect id="Rectangle_484" data-name="Rectangle 484" width="2.95" height="2.95" transform="translate(32.465 18.853)"/>
</svg>
