<svg width="170" height="170" viewBox="0 0 170 170" fill="none" xmlns="http://www.w3.org/2000/svg">
<path d="M84.3762 40.3804C98.6112 40.9454 111.05 46.1124 122.593 53.8144C134.099 61.5896 144.243 71.2117 152.613 82.2924C153.576 83.5474 154.326 84.5993 153.013 86.2863C140.413 102.529 125.63 116.086 106.313 123.898C86.8302 131.782 68.3742 128.498 50.8132 117.998C37.439 109.861 25.7728 99.2036 16.4632 86.6173C15.8182 85.7643 15.5412 83.7253 16.0932 83.0083C30.1762 64.7263 46.7803 49.6754 69.5083 42.9954C74.3053 41.5874 79.4112 41.2254 84.3762 40.3804ZM84.4122 118.73C103.129 118.786 118.784 103.213 118.743 84.5744C118.683 75.5094 115.052 66.8335 108.639 60.4269C102.225 54.0203 93.5453 50.3992 84.4802 50.3484C65.8302 50.3644 50.3422 65.9034 50.2612 84.6804C50.1852 103.034 65.8722 118.675 84.4122 118.73ZM126.231 67.8303L125.252 68.4223C129.201 78.7858 129.222 90.2355 125.311 100.613L126.461 101.454L142.837 84.5803L126.231 67.8303ZM42.7232 101.319L43.7802 100.598C39.8948 90.2289 39.8838 78.8053 43.7492 68.4283L42.8182 67.8794L26.1953 84.0943L42.7232 101.319Z" fill="#002672"/>
<path d="M110.497 0.486066C122.151 0.486066 133.313 -0.313937 144.313 0.686063C158.363 1.95606 168.731 14.3411 168.948 28.4861C169.087 37.5041 168.916 46.5261 169.024 55.5441C169.051 57.7951 168.446 58.784 166.072 58.603C163.922 58.441 161.75 58.569 159.311 58.569C159.311 48.382 159.327 38.7231 159.306 29.0691C159.29 22.0241 156.361 16.3151 150.317 12.8691C147.07 11.0932 143.46 10.0815 139.763 9.91106C131.093 9.49406 122.39 9.70206 113.701 9.81706C111.343 9.84906 110.217 9.29907 110.457 6.72307C110.649 4.67307 110.497 2.59207 110.497 0.486066Z" fill="#002672"/>
<path d="M159.532 111.069C159.877 110.833 159.961 110.729 160.058 110.716C168.981 109.526 169.026 109.527 168.963 118.38C168.903 126.951 169.363 135.588 168.47 144.08C167.719 150.775 164.575 156.973 159.617 161.533C154.658 166.093 148.219 168.708 141.485 168.897C131.602 169.297 121.685 168.974 111.791 168.956C111.355 168.874 110.929 168.742 110.522 168.564C110.4 166.094 110.442 163.619 110.648 161.155C110.748 160.438 112.348 159.412 113.273 159.396C121.52 159.256 129.791 158.941 138.015 159.396C140.871 159.616 143.74 159.218 146.428 158.229C149.116 157.239 151.559 155.682 153.59 153.663C155.622 151.643 157.194 149.21 158.2 146.528C159.205 143.846 159.621 140.979 159.418 138.122C158.918 129.353 159.338 120.53 159.358 111.73C159.389 111.504 159.447 111.282 159.532 111.069Z" fill="#002672"/>
<path d="M58.4581 0.511156C58.579 2.98256 58.5373 5.45924 58.3331 7.92516C58.2331 8.64016 56.6492 9.66815 55.7332 9.68315C47.2632 9.82115 38.7882 9.76015 30.3152 9.77315C17.7092 9.79315 9.76816 17.7651 9.75316 30.4131C9.74316 38.4461 9.55315 46.4852 9.83915 54.5132C9.96315 58.0132 8.81318 59.0282 5.55418 58.6002C3.90657 58.4765 2.25248 58.4635 0.603132 58.5612C0.603132 46.7562 -0.290827 35.3662 0.833173 24.1802C2.18517 10.7272 13.8932 0.752163 27.4642 0.206163C37.3512 -0.193837 47.2642 0.122149 57.1702 0.135149C57.6118 0.213991 58.0435 0.340055 58.4581 0.511156Z" fill="#002672"/>
<path d="M58.2992 159.688V168.994C56.4612 168.994 54.7382 169.015 53.0172 168.994C43.5632 168.858 34.0361 169.407 24.6751 168.402C18.1999 167.66 12.1976 164.645 7.73568 159.894C3.27372 155.144 0.641223 148.964 0.306178 142.455C-0.301822 132.045 0.184169 121.571 0.184169 110.544C2.91488 110.441 5.64912 110.485 8.37515 110.675C8.92515 110.735 9.67515 112.467 9.68515 113.435C9.79115 121.798 9.74415 130.162 9.75015 138.525C9.76015 151.39 17.6501 159.288 30.5031 159.304C39.4158 159.315 48.3285 159.329 57.2412 159.348C57.6044 159.426 57.9588 159.54 58.2992 159.688Z" fill="#002672"/>
<path d="M81.7092 70.2884C88.4822 69.1034 94.7652 71.9994 97.5362 77.5884C99.0605 80.4193 99.6103 83.6734 99.1006 86.8479C98.5909 90.0225 97.0501 92.9409 94.7162 95.1524C92.4439 97.3458 89.5268 98.751 86.3952 99.1606C83.2636 99.5703 80.0832 98.9626 77.3232 97.4274C74.6061 95.9404 72.4517 93.6034 71.19 90.7747C69.9283 87.9459 69.6291 84.7815 70.3382 81.7664C79.5012 83.2224 82.8972 79.7934 81.7092 70.2884Z" fill="#002672"/>
</svg>
