<svg width="170" height="170" viewBox="0 0 170 170" fill="none" xmlns="http://www.w3.org/2000/svg">
<path d="M84.3761 40.3802C98.6111 40.9452 111.05 46.1122 122.593 53.8142C134.099 61.5894 144.243 71.2115 152.613 82.2922C153.576 83.5472 154.326 84.5991 153.013 86.2861C140.413 102.529 125.63 116.086 106.313 123.898C86.8301 131.782 68.3741 128.498 50.8131 117.998C37.4389 109.861 25.7727 99.2034 16.4631 86.6171C15.8181 85.7641 15.5411 83.7251 16.0931 83.0081C30.1761 64.7261 46.7802 49.6752 69.5082 42.9952C74.3052 41.5872 79.4111 41.2252 84.3761 40.3802ZM84.4121 118.73C103.129 118.786 118.784 103.213 118.743 84.5742C118.683 75.5092 115.052 66.8333 108.639 60.4267C102.225 54.0201 93.5452 50.399 84.4801 50.3482C65.8301 50.3642 50.3421 65.9032 50.2611 84.6802C50.1851 103.034 65.8721 118.675 84.4121 118.73ZM126.231 67.8301L125.252 68.4221C129.201 78.7856 129.222 90.2353 125.311 100.613L126.461 101.454L142.837 84.5801L126.231 67.8301ZM42.7231 101.319L43.7801 100.598C39.8947 90.2287 39.8837 78.8051 43.7491 68.4281L42.8181 67.8792L26.1952 84.0941L42.7231 101.319Z" fill="#48A951"/>
<path d="M110.497 0.486158C122.151 0.486158 133.313 -0.313845 144.313 0.686155C158.363 1.95615 168.731 14.3412 168.948 28.4862C169.087 37.5042 168.916 46.5262 169.024 55.5442C169.051 57.7952 168.446 58.7841 166.072 58.6031C163.922 58.4411 161.75 58.5691 159.311 58.5691C159.311 48.3821 159.327 38.7232 159.306 29.0692C159.29 22.0242 156.361 16.3152 150.317 12.8692C147.07 11.0933 143.46 10.0816 139.763 9.91115C131.093 9.49415 122.39 9.70215 113.701 9.81715C111.343 9.84915 110.217 9.29916 110.457 6.72316C110.649 4.67316 110.497 2.59216 110.497 0.486158Z" fill="#48A951"/>
<path d="M159.532 111.069C159.877 110.833 159.961 110.729 160.058 110.716C168.981 109.526 169.026 109.527 168.963 118.38C168.903 126.951 169.363 135.588 168.47 144.08C167.719 150.775 164.575 156.973 159.617 161.533C154.658 166.093 148.219 168.708 141.485 168.897C131.602 169.297 121.685 168.974 111.791 168.956C111.355 168.874 110.929 168.742 110.522 168.564C110.4 166.094 110.442 163.619 110.648 161.155C110.748 160.438 112.348 159.412 113.273 159.396C121.52 159.256 129.791 158.941 138.015 159.396C140.871 159.616 143.74 159.218 146.428 158.229C149.116 157.239 151.559 155.682 153.59 153.663C155.622 151.643 157.194 149.21 158.2 146.528C159.205 143.846 159.621 140.979 159.418 138.122C158.918 129.353 159.338 120.53 159.358 111.73C159.389 111.504 159.447 111.282 159.532 111.069Z" fill="#48A951"/>
<path d="M58.4581 0.511156C58.579 2.98256 58.5373 5.45924 58.3331 7.92516C58.2331 8.64016 56.6491 9.66815 55.7331 9.68315C47.2631 9.82115 38.7881 9.76015 30.3151 9.77315C17.7091 9.79315 9.76811 17.7651 9.75311 30.4131C9.74311 38.4461 9.5531 46.4852 9.8391 54.5132C9.9631 58.0132 8.81313 59.0282 5.55413 58.6002C3.90652 58.4765 2.25243 58.4635 0.603081 58.5612C0.603081 46.7562 -0.290878 35.3662 0.833122 24.1802C2.18512 10.7272 13.8931 0.752163 27.4641 0.206163C37.3511 -0.193837 47.2641 0.122149 57.1701 0.135149C57.6117 0.213991 58.0435 0.340055 58.4581 0.511156Z" fill="#48A951"/>
<path d="M58.2992 159.688V168.994C56.4612 168.994 54.7382 169.015 53.0172 168.994C43.5632 168.858 34.0361 169.407 24.6751 168.402C18.1999 167.66 12.1976 164.645 7.73568 159.894C3.27372 155.144 0.641223 148.964 0.306178 142.455C-0.301822 132.045 0.184169 121.571 0.184169 110.544C2.91488 110.441 5.64912 110.485 8.37515 110.675C8.92515 110.735 9.67515 112.467 9.68515 113.435C9.79115 121.798 9.74415 130.162 9.75015 138.525C9.76015 151.39 17.6501 159.288 30.5031 159.304C39.4158 159.315 48.3285 159.329 57.2412 159.348C57.6044 159.426 57.9588 159.54 58.2992 159.688Z" fill="#48A951"/>
<path d="M81.7091 70.2882C88.4821 69.1032 94.7651 71.9992 97.5361 77.5882C99.0604 80.4191 99.6102 83.6732 99.1005 86.8477C98.5908 90.0223 97.05 92.9407 94.7161 95.1522C92.4438 97.3456 89.5267 98.7508 86.3951 99.1604C83.2635 99.5701 80.0831 98.9624 77.3231 97.4272C74.606 95.9402 72.4516 93.6032 71.1899 90.7745C69.9282 87.9457 69.629 84.7813 70.3381 81.7662C79.5011 83.2222 82.8971 79.7932 81.7091 70.2882Z" fill="#48A951"/>
</svg>
