<svg width="134" height="30" viewBox="0 0 134 30" fill="none" xmlns="http://www.w3.org/2000/svg">
<path d="M27.8151 1.101L17.5751 29.021H10.7751L0.535098 1.101H6.5351L14.2151 23.301L21.8551 1.101H27.8151ZM36.7726 1.101V29.021H31.1726V1.101H36.7726ZM51.9454 29.301C49.9987 29.301 48.2387 28.9677 46.6654 28.301C45.1187 27.6343 43.8921 26.6743 42.9854 25.421C42.0787 24.1677 41.6121 22.6877 41.5854 20.981H47.5854C47.6654 22.1277 48.0654 23.0343 48.7854 23.701C49.5321 24.3677 50.5454 24.701 51.8254 24.701C53.1321 24.701 54.1587 24.3943 54.9054 23.781C55.6521 23.141 56.0254 22.3143 56.0254 21.301C56.0254 20.4743 55.7721 19.7943 55.2654 19.261C54.7587 18.7277 54.1187 18.3143 53.3454 18.021C52.5987 17.701 51.5587 17.3543 50.2254 16.981C48.4121 16.4477 46.9321 15.9277 45.7854 15.421C44.6654 14.8877 43.6921 14.101 42.8654 13.061C42.0654 11.9943 41.6654 10.581 41.6654 8.821C41.6654 7.16766 42.0787 5.72766 42.9054 4.50099C43.7321 3.27433 44.8921 2.34099 46.3854 1.70099C47.8787 1.03433 49.5854 0.700996 51.5054 0.700996C54.3854 0.700996 56.7187 1.40766 58.5054 2.82099C60.3187 4.20766 61.3187 6.15433 61.5054 8.661H55.3454C55.2921 7.701 54.8787 6.91433 54.1054 6.301C53.3587 5.661 52.3587 5.341 51.1054 5.341C50.0121 5.341 49.1321 5.621 48.4654 6.18099C47.8254 6.741 47.5054 7.55433 47.5054 8.62099C47.5054 9.36766 47.7454 9.99433 48.2254 10.501C48.7321 10.981 49.3454 11.381 50.0654 11.701C50.8121 11.9943 51.8521 12.341 53.1854 12.741C54.9987 13.2743 56.4787 13.8077 57.6254 14.341C58.7721 14.8743 59.7587 15.6743 60.5854 16.741C61.4121 17.8077 61.8254 19.2077 61.8254 20.941C61.8254 22.4343 61.4387 23.821 60.6654 25.101C59.8921 26.381 58.7587 27.4077 57.2654 28.181C55.7721 28.9277 53.9987 29.301 51.9454 29.301ZM72.2804 1.101V29.021H66.6804V1.101H72.2804ZM90.7732 29.301C88.1599 29.301 85.7599 28.6877 83.5732 27.461C81.3866 26.2343 79.6532 24.541 78.3732 22.381C77.0932 20.1943 76.4532 17.7277 76.4532 14.981C76.4532 12.261 77.0932 9.821 78.3732 7.66099C79.6532 5.47433 81.3866 3.76766 83.5732 2.54099C85.7599 1.31433 88.1599 0.700996 90.7732 0.700996C93.4132 0.700996 95.8132 1.31433 97.9732 2.54099C100.16 3.76766 101.88 5.47433 103.133 7.66099C104.413 9.821 105.053 12.261 105.053 14.981C105.053 17.7277 104.413 20.1943 103.133 22.381C101.88 24.541 100.16 26.2343 97.9732 27.461C95.7866 28.6877 93.3866 29.301 90.7732 29.301ZM90.7732 24.301C92.4532 24.301 93.9332 23.9277 95.2132 23.181C96.4932 22.4077 97.4932 21.3143 98.2132 19.901C98.9332 18.4877 99.2932 16.8477 99.2932 14.981C99.2932 13.1143 98.9332 11.4877 98.2132 10.101C97.4932 8.68766 96.4932 7.60766 95.2132 6.861C93.9332 6.11433 92.4532 5.741 90.7732 5.741C89.0932 5.741 87.5999 6.11433 86.2932 6.861C85.0132 7.60766 84.0132 8.68766 83.2932 10.101C82.5732 11.4877 82.2132 13.1143 82.2132 14.981C82.2132 16.8477 82.5732 18.4877 83.2932 19.901C84.0132 21.3143 85.0132 22.4077 86.2932 23.181C87.5999 23.9277 89.0932 24.301 90.7732 24.301ZM133.099 29.021H127.499L114.819 9.86099V29.021H109.219V1.06099H114.819L127.499 20.261V1.06099H133.099V29.021Z" fill="#48A951"/>
</svg>
