<svg width="134" height="30" viewBox="0 0 134 30" fill="none" xmlns="http://www.w3.org/2000/svg">
<path d="M27.8152 1.10118L17.5752 29.0212H10.7752L0.535156 1.10118H6.53516L14.2152 23.3012L21.8552 1.10118H27.8152ZM36.7727 1.10118V29.0212H31.1727V1.10118H36.7727ZM51.9455 29.3012C49.9988 29.3012 48.2388 28.9679 46.6655 28.3012C45.1188 27.6345 43.8922 26.6745 42.9855 25.4212C42.0788 24.1679 41.6122 22.6879 41.5855 20.9812H47.5855C47.6655 22.1279 48.0655 23.0345 48.7855 23.7012C49.5322 24.3679 50.5455 24.7012 51.8255 24.7012C53.1322 24.7012 54.1588 24.3945 54.9055 23.7812C55.6522 23.1412 56.0255 22.3145 56.0255 21.3012C56.0255 20.4745 55.7722 19.7945 55.2655 19.2612C54.7588 18.7279 54.1188 18.3145 53.3455 18.0212C52.5988 17.7012 51.5588 17.3545 50.2255 16.9812C48.4122 16.4479 46.9322 15.9279 45.7855 15.4212C44.6655 14.8879 43.6922 14.1012 42.8655 13.0612C42.0655 11.9945 41.6655 10.5812 41.6655 8.82118C41.6655 7.16784 42.0788 5.72784 42.9055 4.50117C43.7322 3.27451 44.8922 2.34117 46.3855 1.70117C47.8788 1.03451 49.5855 0.701172 51.5055 0.701172C54.3855 0.701172 56.7188 1.40784 58.5055 2.82117C60.3188 4.20784 61.3188 6.15451 61.5055 8.66118H55.3455C55.2922 7.70118 54.8788 6.91451 54.1055 6.30118C53.3588 5.66118 52.3588 5.34118 51.1055 5.34118C50.0122 5.34118 49.1322 5.62118 48.4655 6.18117C47.8255 6.74118 47.5055 7.55451 47.5055 8.62117C47.5055 9.36784 47.7455 9.99451 48.2255 10.5012C48.7322 10.9812 49.3455 11.3812 50.0655 11.7012C50.8122 11.9945 51.8522 12.3412 53.1855 12.7412C54.9988 13.2745 56.4788 13.8079 57.6255 14.3412C58.7722 14.8745 59.7588 15.6745 60.5855 16.7412C61.4122 17.8079 61.8255 19.2079 61.8255 20.9412C61.8255 22.4345 61.4388 23.8212 60.6655 25.1012C59.8922 26.3812 58.7588 27.4079 57.2655 28.1812C55.7722 28.9279 53.9988 29.3012 51.9455 29.3012ZM72.2805 1.10118V29.0212H66.6805V1.10118H72.2805ZM90.7733 29.3012C88.16 29.3012 85.76 28.6879 83.5733 27.4612C81.3867 26.2345 79.6533 24.5412 78.3733 22.3812C77.0933 20.1945 76.4533 17.7279 76.4533 14.9812C76.4533 12.2612 77.0933 9.82118 78.3733 7.66117C79.6533 5.47451 81.3867 3.76784 83.5733 2.54117C85.76 1.31451 88.16 0.701172 90.7733 0.701172C93.4133 0.701172 95.8133 1.31451 97.9733 2.54117C100.16 3.76784 101.88 5.47451 103.133 7.66117C104.413 9.82118 105.053 12.2612 105.053 14.9812C105.053 17.7279 104.413 20.1945 103.133 22.3812C101.88 24.5412 100.16 26.2345 97.9733 27.4612C95.7867 28.6879 93.3867 29.3012 90.7733 29.3012ZM90.7733 24.3012C92.4533 24.3012 93.9333 23.9279 95.2133 23.1812C96.4933 22.4079 97.4933 21.3145 98.2133 19.9012C98.9333 18.4879 99.2933 16.8479 99.2933 14.9812C99.2933 13.1145 98.9333 11.4879 98.2133 10.1012C97.4933 8.68784 96.4933 7.60784 95.2133 6.86118C93.9333 6.11451 92.4533 5.74118 90.7733 5.74118C89.0933 5.74118 87.6 6.11451 86.2933 6.86118C85.0133 7.60784 84.0133 8.68784 83.2933 10.1012C82.5733 11.4879 82.2133 13.1145 82.2133 14.9812C82.2133 16.8479 82.5733 18.4879 83.2933 19.9012C84.0133 21.3145 85.0133 22.4079 86.2933 23.1812C87.6 23.9279 89.0933 24.3012 90.7733 24.3012ZM133.099 29.0212H127.499L114.819 9.86117V29.0212H109.219V1.06117H114.819L127.499 20.2612V1.06117H133.099V29.0212Z" fill="#002672"/>
</svg>
