<svg xmlns="http://www.w3.org/2000/svg" xmlns:xlink="http://www.w3.org/1999/xlink" width="29.993" height="29.993" viewBox="0 0 29.993 29.993">
  <defs>
    <radialGradient id="radial-gradient" cx="0.5" cy="0.5" r="0.5" gradientTransform="translate(0)" gradientUnits="objectBoundingBox">
      <stop offset="0.168" stop-color="#c2181e"/>
      <stop offset="0.765" stop-color="#de2925"/>
    </radialGradient>
    <radialGradient id="radial-gradient-2" cx="0.5" cy="0.5" r="0.49" gradientTransform="translate(-0.022) scale(1.044 1)" xlink:href="#radial-gradient"/>
    <radialGradient id="radial-gradient-3" cx="0.5" cy="0.5" r="0.702" gradientTransform="translate(0.209) scale(0.583 1)" xlink:href="#radial-gradient"/>
  </defs>
  <g id="Group_420" data-name="Group 420" transform="translate(-588.686 54.121)">
    <path id="Rectangle_946" data-name="Rectangle 946" d="M6.162,0h17.67a6.161,6.161,0,0,1,6.161,6.161V23.833a6.16,6.16,0,0,1-6.16,6.16H6.16A6.16,6.16,0,0,1,0,23.833V6.162A6.162,6.162,0,0,1,6.162,0Z" transform="translate(588.686 -54.121)" fill="url(#radial-gradient)"/>
    <path id="Rectangle_947" data-name="Rectangle 947" d="M5.144,0H17.4a5.144,5.144,0,0,1,5.144,5.144v5.44A5.143,5.143,0,0,1,17.4,15.726H5.143A5.143,5.143,0,0,1,0,10.583V5.144A5.144,5.144,0,0,1,5.144,0Z" transform="translate(592.411 -46.988)" fill="#fff"/>
    <g id="Group_377" data-name="Group 377">
      <path id="Path_327" data-name="Path 327" d="M601.423-42.2l6.14,3.2-6.14,3.2Z" fill="url(#radial-gradient-2)"/>
      <path id="Path_328" data-name="Path 328" d="M601.423-42.149l5.34,3.572.8-.416L601.9-41.95l-.474-.206Z" fill="url(#radial-gradient-3)"/>
    </g>
  </g>
</svg>
